<mxfile host="app.diagrams.net" modified="2021-09-27T06:12:02.990Z" agent="5.0 (Windows NT 10.0; WOW64) AppleWebKit/537.36 (KHTML, like Gecko) Chrome/69.0.3947.100 Safari/537.36" etag="ITq0CqWC5N_FkEgXiowR" version="15.2.9" type="github">
  <diagram id="8cJA8IoX43Oh-N6bYJDm" name="Page-1">
    <mxGraphModel dx="1151" dy="600" grid="1" gridSize="10" guides="1" tooltips="1" connect="1" arrows="1" fold="1" page="1" pageScale="1" pageWidth="827" pageHeight="1169" math="0" shadow="0">
      <root>
        <mxCell id="0" />
        <mxCell id="1" parent="0" />
        <mxCell id="VNnDimrutekPzXAT0fa--1" value="" style="rounded=1;whiteSpace=wrap;html=1;strokeColor=#666666;strokeWidth=2;fillColor=#D5E8D4;opacity=30;" vertex="1" parent="1">
          <mxGeometry x="259" y="1228" width="207" height="95.5" as="geometry" />
        </mxCell>
        <mxCell id="VNnDimrutekPzXAT0fa--2" value="" style="rounded=1;whiteSpace=wrap;html=1;strokeColor=#666666;strokeWidth=2;fillColor=#D5E8D4;opacity=30;" vertex="1" parent="1">
          <mxGeometry x="255.5" y="1065.25" width="207" height="95.5" as="geometry" />
        </mxCell>
        <mxCell id="VNnDimrutekPzXAT0fa--3" value="" style="rounded=1;whiteSpace=wrap;html=1;strokeColor=#666666;strokeWidth=2;fillColor=#D5E8D4;opacity=30;" vertex="1" parent="1">
          <mxGeometry x="259" y="900.5" width="207" height="95.5" as="geometry" />
        </mxCell>
        <mxCell id="VNnDimrutekPzXAT0fa--4" value="" style="rounded=1;whiteSpace=wrap;html=1;strokeColor=#666666;strokeWidth=2;fillColor=#D5E8D4;opacity=30;" vertex="1" parent="1">
          <mxGeometry x="261" y="740.25" width="207" height="95.5" as="geometry" />
        </mxCell>
        <mxCell id="VNnDimrutekPzXAT0fa--5" style="edgeStyle=orthogonalEdgeStyle;rounded=0;orthogonalLoop=1;jettySize=auto;html=1;exitX=0;exitY=0;exitDx=30;exitDy=45;exitPerimeter=0;strokeWidth=2;" edge="1" parent="1" source="VNnDimrutekPzXAT0fa--6">
          <mxGeometry relative="1" as="geometry">
            <mxPoint x="180" y="870" as="targetPoint" />
          </mxGeometry>
        </mxCell>
        <mxCell id="VNnDimrutekPzXAT0fa--6" value="" style="shape=cube;whiteSpace=wrap;html=1;boundedLbl=1;backgroundOutline=1;darkOpacity=0.05;darkOpacity2=0.1;" vertex="1" parent="1">
          <mxGeometry x="90" y="825" width="30" height="70" as="geometry" />
        </mxCell>
        <mxCell id="VNnDimrutekPzXAT0fa--7" style="edgeStyle=orthogonalEdgeStyle;rounded=0;orthogonalLoop=1;jettySize=auto;html=1;exitX=0;exitY=0;exitDx=30;exitDy=45;exitPerimeter=0;entryX=0;entryY=0.5;entryDx=0;entryDy=0;strokeWidth=2;" edge="1" parent="1" source="VNnDimrutekPzXAT0fa--8">
          <mxGeometry relative="1" as="geometry">
            <mxPoint x="180" y="1196" as="targetPoint" />
          </mxGeometry>
        </mxCell>
        <mxCell id="VNnDimrutekPzXAT0fa--8" value="" style="shape=cube;whiteSpace=wrap;html=1;boundedLbl=1;backgroundOutline=1;darkOpacity=0.05;darkOpacity2=0.1;" vertex="1" parent="1">
          <mxGeometry x="90" y="1151" width="30" height="70" as="geometry" />
        </mxCell>
        <mxCell id="VNnDimrutekPzXAT0fa--9" value="" style="endArrow=classic;html=1;strokeWidth=2;" edge="1" parent="1" target="VNnDimrutekPzXAT0fa--19">
          <mxGeometry width="50" height="50" relative="1" as="geometry">
            <mxPoint x="150" y="804" as="sourcePoint" />
            <mxPoint x="180" y="804" as="targetPoint" />
          </mxGeometry>
        </mxCell>
        <mxCell id="VNnDimrutekPzXAT0fa--10" value="" style="endArrow=classic;html=1;entryX=0;entryY=0.5;entryDx=0;entryDy=0;strokeWidth=2;" edge="1" parent="1">
          <mxGeometry width="50" height="50" relative="1" as="geometry">
            <mxPoint x="150" y="1268" as="sourcePoint" />
            <mxPoint x="180" y="1268" as="targetPoint" />
          </mxGeometry>
        </mxCell>
        <mxCell id="VNnDimrutekPzXAT0fa--11" value="" style="endArrow=classic;html=1;entryX=0;entryY=0.5;entryDx=0;entryDy=0;strokeWidth=2;" edge="1" parent="1">
          <mxGeometry width="50" height="50" relative="1" as="geometry">
            <mxPoint x="150" y="945" as="sourcePoint" />
            <mxPoint x="180" y="945" as="targetPoint" />
          </mxGeometry>
        </mxCell>
        <mxCell id="VNnDimrutekPzXAT0fa--12" value="" style="endArrow=classic;html=1;entryX=0;entryY=0.5;entryDx=0;entryDy=0;strokeWidth=2;" edge="1" parent="1">
          <mxGeometry width="50" height="50" relative="1" as="geometry">
            <mxPoint x="150" y="1115.6599999999999" as="sourcePoint" />
            <mxPoint x="180" y="1115.6599999999999" as="targetPoint" />
          </mxGeometry>
        </mxCell>
        <mxCell id="VNnDimrutekPzXAT0fa--14" style="edgeStyle=orthogonalEdgeStyle;rounded=0;orthogonalLoop=1;jettySize=auto;html=1;exitX=1;exitY=0.5;exitDx=0;exitDy=0;strokeWidth=2;entryX=0;entryY=0.5;entryDx=0;entryDy=0;" edge="1" parent="1" source="VNnDimrutekPzXAT0fa--15" target="VNnDimrutekPzXAT0fa--203">
          <mxGeometry relative="1" as="geometry">
            <mxPoint x="200" y="1036" as="targetPoint" />
          </mxGeometry>
        </mxCell>
        <mxCell id="VNnDimrutekPzXAT0fa--15" value="&lt;b&gt;&lt;font face=&quot;Times New Roman&quot;&gt;C&lt;/font&gt;&lt;/b&gt;" style="ellipse;whiteSpace=wrap;html=1;aspect=fixed;" vertex="1" parent="1">
          <mxGeometry x="140" y="1017" width="20" height="20" as="geometry" />
        </mxCell>
        <mxCell id="VNnDimrutekPzXAT0fa--16" style="edgeStyle=orthogonalEdgeStyle;rounded=0;orthogonalLoop=1;jettySize=auto;html=1;exitX=1;exitY=0.5;exitDx=0;exitDy=0;entryX=0.5;entryY=0;entryDx=0;entryDy=0;strokeWidth=2;fillColor=#647687;strokeColor=#314354;" edge="1" parent="1" source="VNnDimrutekPzXAT0fa--17">
          <mxGeometry relative="1" as="geometry">
            <mxPoint x="592.5" y="989" as="targetPoint" />
          </mxGeometry>
        </mxCell>
        <mxCell id="VNnDimrutekPzXAT0fa--17" value="&lt;b&gt;&lt;font face=&quot;Times New Roman&quot;&gt;X&lt;/font&gt;&lt;/b&gt;" style="ellipse;whiteSpace=wrap;html=1;aspect=fixed;" vertex="1" parent="1">
          <mxGeometry x="525" y="910" width="15" height="15" as="geometry" />
        </mxCell>
        <mxCell id="VNnDimrutekPzXAT0fa--18" style="edgeStyle=orthogonalEdgeStyle;rounded=0;orthogonalLoop=1;jettySize=auto;html=1;exitX=1;exitY=0.5;exitDx=0;exitDy=0;entryX=0;entryY=0.5;entryDx=0;entryDy=0;strokeWidth=2;" edge="1" parent="1" source="VNnDimrutekPzXAT0fa--19">
          <mxGeometry relative="1" as="geometry">
            <mxPoint x="260" y="804" as="targetPoint" />
          </mxGeometry>
        </mxCell>
        <mxCell id="VNnDimrutekPzXAT0fa--19" value="&lt;font face=&quot;Times New Roman&quot;&gt;&lt;b&gt;1*1&lt;/b&gt;&lt;/font&gt;" style="rounded=0;whiteSpace=wrap;html=1;strokeColor=#36393d;fillColor=#CCE5FF;" vertex="1" parent="1">
          <mxGeometry x="180" y="789.75" width="30" height="30" as="geometry" />
        </mxCell>
        <mxCell id="VNnDimrutekPzXAT0fa--20" style="edgeStyle=orthogonalEdgeStyle;rounded=0;orthogonalLoop=1;jettySize=auto;html=1;entryX=0;entryY=0.5;entryDx=0;entryDy=0;strokeWidth=2;" edge="1" parent="1">
          <mxGeometry relative="1" as="geometry">
            <mxPoint x="210" y="870" as="sourcePoint" />
            <mxPoint x="260" y="870" as="targetPoint" />
          </mxGeometry>
        </mxCell>
        <mxCell id="VNnDimrutekPzXAT0fa--21" style="edgeStyle=orthogonalEdgeStyle;rounded=0;orthogonalLoop=1;jettySize=auto;html=1;entryX=0;entryY=0.5;entryDx=0;entryDy=0;strokeWidth=2;" edge="1" parent="1">
          <mxGeometry relative="1" as="geometry">
            <mxPoint x="210" y="945" as="sourcePoint" />
            <mxPoint x="260" y="945" as="targetPoint" />
          </mxGeometry>
        </mxCell>
        <mxCell id="VNnDimrutekPzXAT0fa--22" style="edgeStyle=orthogonalEdgeStyle;rounded=0;orthogonalLoop=1;jettySize=auto;html=1;entryX=0;entryY=0.5;entryDx=0;entryDy=0;strokeWidth=2;" edge="1" parent="1">
          <mxGeometry relative="1" as="geometry">
            <mxPoint x="210" y="1116" as="sourcePoint" />
            <mxPoint x="259" y="1116" as="targetPoint" />
          </mxGeometry>
        </mxCell>
        <mxCell id="VNnDimrutekPzXAT0fa--23" style="edgeStyle=orthogonalEdgeStyle;rounded=0;orthogonalLoop=1;jettySize=auto;html=1;entryX=0;entryY=0.5;entryDx=0;entryDy=0;strokeWidth=2;" edge="1" parent="1">
          <mxGeometry relative="1" as="geometry">
            <mxPoint x="210" y="1196" as="sourcePoint" />
            <mxPoint x="260" y="1196" as="targetPoint" />
          </mxGeometry>
        </mxCell>
        <mxCell id="VNnDimrutekPzXAT0fa--24" style="edgeStyle=orthogonalEdgeStyle;rounded=0;orthogonalLoop=1;jettySize=auto;html=1;entryX=0;entryY=0.5;entryDx=0;entryDy=0;strokeWidth=2;" edge="1" parent="1">
          <mxGeometry relative="1" as="geometry">
            <mxPoint x="210" y="1270" as="sourcePoint" />
            <mxPoint x="260" y="1270" as="targetPoint" />
          </mxGeometry>
        </mxCell>
        <mxCell id="VNnDimrutekPzXAT0fa--25" style="edgeStyle=orthogonalEdgeStyle;rounded=0;orthogonalLoop=1;jettySize=auto;html=1;entryX=0.5;entryY=1;entryDx=0;entryDy=0;strokeWidth=2;exitX=1;exitY=0.25;exitDx=0;exitDy=0;" edge="1" parent="1" source="VNnDimrutekPzXAT0fa--187" target="VNnDimrutekPzXAT0fa--36">
          <mxGeometry relative="1" as="geometry">
            <mxPoint x="510" y="1286" as="sourcePoint" />
          </mxGeometry>
        </mxCell>
        <mxCell id="VNnDimrutekPzXAT0fa--26" style="edgeStyle=orthogonalEdgeStyle;rounded=0;orthogonalLoop=1;jettySize=auto;html=1;exitX=1;exitY=0.5;exitDx=0;exitDy=0;entryX=0.5;entryY=1;entryDx=0;entryDy=0;strokeWidth=2;fillColor=#647687;strokeColor=#314354;" edge="1" parent="1" source="VNnDimrutekPzXAT0fa--27" target="VNnDimrutekPzXAT0fa--198">
          <mxGeometry relative="1" as="geometry" />
        </mxCell>
        <mxCell id="VNnDimrutekPzXAT0fa--27" value="&lt;b&gt;&lt;font face=&quot;Times New Roman&quot;&gt;X&lt;/font&gt;&lt;/b&gt;" style="ellipse;whiteSpace=wrap;html=1;aspect=fixed;" vertex="1" parent="1">
          <mxGeometry x="525" y="1136" width="15" height="15" as="geometry" />
        </mxCell>
        <mxCell id="VNnDimrutekPzXAT0fa--28" value="&lt;b&gt;&lt;font face=&quot;Times New Roman&quot; style=&quot;font-size: 13px&quot;&gt;softmax&lt;/font&gt;&lt;/b&gt;" style="text;html=1;resizable=0;autosize=1;align=center;verticalAlign=middle;points=[];fillColor=none;strokeColor=none;rounded=0;" vertex="1" parent="1">
          <mxGeometry x="596" y="971.25" width="60" height="20" as="geometry" />
        </mxCell>
        <mxCell id="VNnDimrutekPzXAT0fa--29" value="Ar" style="whiteSpace=wrap;html=1;aspect=fixed;fillColor=#eeeeee;strokeColor=#36393d;" vertex="1" parent="1">
          <mxGeometry x="657" y="978" width="40" height="40" as="geometry" />
        </mxCell>
        <mxCell id="VNnDimrutekPzXAT0fa--30" value="Ad" style="whiteSpace=wrap;html=1;aspect=fixed;fillColor=#eeeeee;strokeColor=#36393d;" vertex="1" parent="1">
          <mxGeometry x="655" y="1046" width="40" height="40" as="geometry" />
        </mxCell>
        <mxCell id="VNnDimrutekPzXAT0fa--31" value="&lt;b&gt;&lt;font face=&quot;Times New Roman&quot; style=&quot;font-size: 13px&quot;&gt;softmax&lt;/font&gt;&lt;/b&gt;" style="text;html=1;resizable=0;autosize=1;align=center;verticalAlign=middle;points=[];fillColor=none;strokeColor=none;rounded=0;" vertex="1" parent="1">
          <mxGeometry x="595" y="1033.5" width="60" height="20" as="geometry" />
        </mxCell>
        <mxCell id="VNnDimrutekPzXAT0fa--32" value="&lt;b&gt;&lt;font face=&quot;Times New Roman&quot;&gt;X&lt;/font&gt;&lt;/b&gt;" style="ellipse;whiteSpace=wrap;html=1;aspect=fixed;fillColor=#e3c800;strokeColor=#B09500;fontColor=#000000;" vertex="1" parent="1">
          <mxGeometry x="551" y="1038.5" width="15" height="15" as="geometry" />
        </mxCell>
        <mxCell id="VNnDimrutekPzXAT0fa--33" style="edgeStyle=orthogonalEdgeStyle;rounded=0;orthogonalLoop=1;jettySize=auto;html=1;exitX=1;exitY=0.5;exitDx=0;exitDy=0;strokeWidth=2;entryX=-0.002;entryY=0.443;entryDx=0;entryDy=0;entryPerimeter=0;" edge="1" parent="1" source="VNnDimrutekPzXAT0fa--34" target="VNnDimrutekPzXAT0fa--149">
          <mxGeometry relative="1" as="geometry">
            <mxPoint x="731.5" y="932.5" as="sourcePoint" />
            <mxPoint x="747" y="933" as="targetPoint" />
          </mxGeometry>
        </mxCell>
        <mxCell id="VNnDimrutekPzXAT0fa--34" value="&lt;b&gt;&lt;font face=&quot;Times New Roman&quot;&gt;X&lt;/font&gt;&lt;/b&gt;" style="ellipse;whiteSpace=wrap;html=1;aspect=fixed;" vertex="1" parent="1">
          <mxGeometry x="713.5" y="925" width="15" height="15" as="geometry" />
        </mxCell>
        <mxCell id="VNnDimrutekPzXAT0fa--35" style="edgeStyle=orthogonalEdgeStyle;rounded=0;orthogonalLoop=1;jettySize=auto;html=1;exitX=1;exitY=0.5;exitDx=0;exitDy=0;strokeWidth=2;" edge="1" parent="1" source="VNnDimrutekPzXAT0fa--36">
          <mxGeometry relative="1" as="geometry">
            <mxPoint x="749" y="1169" as="targetPoint" />
          </mxGeometry>
        </mxCell>
        <mxCell id="VNnDimrutekPzXAT0fa--36" value="&lt;font face=&quot;Times New Roman&quot;&gt;&lt;b&gt;X&lt;/b&gt;&lt;/font&gt;" style="ellipse;whiteSpace=wrap;html=1;aspect=fixed;" vertex="1" parent="1">
          <mxGeometry x="711.5" y="1161" width="15" height="15" as="geometry" />
        </mxCell>
        <mxCell id="VNnDimrutekPzXAT0fa--37" value="" style="endArrow=none;html=1;strokeWidth=2;" edge="1" parent="1">
          <mxGeometry width="50" height="50" relative="1" as="geometry">
            <mxPoint x="150" y="729" as="sourcePoint" />
            <mxPoint x="840" y="729" as="targetPoint" />
          </mxGeometry>
        </mxCell>
        <mxCell id="VNnDimrutekPzXAT0fa--38" style="edgeStyle=orthogonalEdgeStyle;rounded=0;orthogonalLoop=1;jettySize=auto;html=1;exitX=1;exitY=0.5;exitDx=0;exitDy=0;strokeWidth=2;" edge="1" parent="1" source="VNnDimrutekPzXAT0fa--39">
          <mxGeometry relative="1" as="geometry">
            <mxPoint x="865" y="932.5" as="targetPoint" />
          </mxGeometry>
        </mxCell>
        <mxCell id="VNnDimrutekPzXAT0fa--39" value="&lt;font face=&quot;Times New Roman&quot;&gt;&lt;b&gt;+&lt;/b&gt;&lt;/font&gt;" style="ellipse;whiteSpace=wrap;html=1;aspect=fixed;" vertex="1" parent="1">
          <mxGeometry x="831" y="925" width="15" height="15" as="geometry" />
        </mxCell>
        <mxCell id="VNnDimrutekPzXAT0fa--40" value="" style="endArrow=classic;html=1;entryX=0.5;entryY=0;entryDx=0;entryDy=0;strokeWidth=2;" edge="1" parent="1" target="VNnDimrutekPzXAT0fa--39">
          <mxGeometry width="50" height="50" relative="1" as="geometry">
            <mxPoint x="839" y="728" as="sourcePoint" />
            <mxPoint x="796" y="925.75" as="targetPoint" />
          </mxGeometry>
        </mxCell>
        <mxCell id="VNnDimrutekPzXAT0fa--41" style="edgeStyle=orthogonalEdgeStyle;rounded=0;orthogonalLoop=1;jettySize=auto;html=1;exitX=1;exitY=0.5;exitDx=0;exitDy=0;strokeWidth=2;" edge="1" parent="1" source="VNnDimrutekPzXAT0fa--42">
          <mxGeometry relative="1" as="geometry">
            <mxPoint x="869" y="1170.166666666667" as="targetPoint" />
          </mxGeometry>
        </mxCell>
        <mxCell id="VNnDimrutekPzXAT0fa--42" value="&lt;b&gt;&lt;font face=&quot;Times New Roman&quot;&gt;+&lt;/font&gt;&lt;/b&gt;" style="ellipse;whiteSpace=wrap;html=1;aspect=fixed;" vertex="1" parent="1">
          <mxGeometry x="831" y="1162.5" width="15" height="15" as="geometry" />
        </mxCell>
        <mxCell id="VNnDimrutekPzXAT0fa--43" value="" style="endArrow=none;html=1;strokeWidth=2;" edge="1" parent="1">
          <mxGeometry width="50" height="50" relative="1" as="geometry">
            <mxPoint x="151" y="1329" as="sourcePoint" />
            <mxPoint x="840" y="1329" as="targetPoint" />
          </mxGeometry>
        </mxCell>
        <mxCell id="VNnDimrutekPzXAT0fa--44" style="edgeStyle=orthogonalEdgeStyle;rounded=0;orthogonalLoop=1;jettySize=auto;html=1;exitX=1;exitY=0.5;exitDx=0;exitDy=0;entryX=0;entryY=0.5;entryDx=0;entryDy=0;strokeWidth=2;" edge="1" parent="1" source="VNnDimrutekPzXAT0fa--45" target="VNnDimrutekPzXAT0fa--42">
          <mxGeometry relative="1" as="geometry" />
        </mxCell>
        <mxCell id="VNnDimrutekPzXAT0fa--45" value="" style="whiteSpace=wrap;html=1;aspect=fixed;fillColor=#eeeeee;strokeColor=#36393d;" vertex="1" parent="1">
          <mxGeometry x="748.5" y="1150" width="40" height="40" as="geometry" />
        </mxCell>
        <mxCell id="VNnDimrutekPzXAT0fa--46" value="" style="endArrow=classic;html=1;entryX=0.5;entryY=1;entryDx=0;entryDy=0;strokeWidth=2;" edge="1" parent="1">
          <mxGeometry width="50" height="50" relative="1" as="geometry">
            <mxPoint x="839" y="1330" as="sourcePoint" />
            <mxPoint x="838.5" y="1177.5" as="targetPoint" />
            <Array as="points">
              <mxPoint x="839" y="1330" />
            </Array>
          </mxGeometry>
        </mxCell>
        <mxCell id="VNnDimrutekPzXAT0fa--47" style="edgeStyle=orthogonalEdgeStyle;rounded=0;orthogonalLoop=1;jettySize=auto;html=1;exitX=1;exitY=0.5;exitDx=0;exitDy=0;strokeWidth=2;entryX=0;entryY=0.5;entryDx=0;entryDy=0;" edge="1" parent="1" target="VNnDimrutekPzXAT0fa--39">
          <mxGeometry relative="1" as="geometry">
            <mxPoint x="825" y="932.5" as="targetPoint" />
            <mxPoint x="784.5" y="932.5" as="sourcePoint" />
          </mxGeometry>
        </mxCell>
        <mxCell id="VNnDimrutekPzXAT0fa--49" value="&lt;b&gt;&lt;font face=&quot;Times New Roman&quot;&gt;Or&lt;/font&gt;&lt;/b&gt;" style="whiteSpace=wrap;html=1;aspect=fixed;fillColor=#cce5ff;strokeColor=#36393d;" vertex="1" parent="1">
          <mxGeometry x="865" y="912.5" width="40" height="40" as="geometry" />
        </mxCell>
        <mxCell id="VNnDimrutekPzXAT0fa--50" value="" style="whiteSpace=wrap;html=1;aspect=fixed;" vertex="1" parent="1">
          <mxGeometry x="869" y="1148.5" width="40" height="40" as="geometry" />
        </mxCell>
        <mxCell id="VNnDimrutekPzXAT0fa--51" value="" style="whiteSpace=wrap;html=1;aspect=fixed;fillColor=#ffe6cc;strokeColor=#d79b00;" vertex="1" parent="1">
          <mxGeometry x="315" y="787" width="10" height="10" as="geometry" />
        </mxCell>
        <mxCell id="VNnDimrutekPzXAT0fa--52" value="" style="whiteSpace=wrap;html=1;aspect=fixed;strokeColor=#b85450;fillColor=none;" vertex="1" parent="1">
          <mxGeometry x="341" y="781.75" width="20" height="20" as="geometry" />
        </mxCell>
        <mxCell id="VNnDimrutekPzXAT0fa--53" value="" style="whiteSpace=wrap;html=1;aspect=fixed;strokeColor=#82b366;fillColor=none;" vertex="1" parent="1">
          <mxGeometry x="378" y="778" width="30" height="30" as="geometry" />
        </mxCell>
        <mxCell id="VNnDimrutekPzXAT0fa--55" value="" style="whiteSpace=wrap;html=1;aspect=fixed;fillColor=#f8cecc;strokeColor=#b85450;" vertex="1" parent="1">
          <mxGeometry x="357" y="781.75" width="4" height="4" as="geometry" />
        </mxCell>
        <mxCell id="VNnDimrutekPzXAT0fa--56" value="" style="whiteSpace=wrap;html=1;aspect=fixed;fillColor=#f8cecc;strokeColor=#b85450;" vertex="1" parent="1">
          <mxGeometry x="341" y="781.75" width="4" height="4" as="geometry" />
        </mxCell>
        <mxCell id="VNnDimrutekPzXAT0fa--57" value="" style="whiteSpace=wrap;html=1;aspect=fixed;fillColor=#f8cecc;strokeColor=#b85450;" vertex="1" parent="1">
          <mxGeometry x="341" y="797.75" width="4" height="4" as="geometry" />
        </mxCell>
        <mxCell id="VNnDimrutekPzXAT0fa--58" value="" style="whiteSpace=wrap;html=1;aspect=fixed;fillColor=#f8cecc;strokeColor=#b85450;" vertex="1" parent="1">
          <mxGeometry x="357" y="797.75" width="4" height="4" as="geometry" />
        </mxCell>
        <mxCell id="VNnDimrutekPzXAT0fa--59" value="" style="whiteSpace=wrap;html=1;aspect=fixed;fillColor=#f8cecc;strokeColor=#b85450;" vertex="1" parent="1">
          <mxGeometry x="357" y="789.75" width="4" height="4" as="geometry" />
        </mxCell>
        <mxCell id="VNnDimrutekPzXAT0fa--60" value="" style="whiteSpace=wrap;html=1;aspect=fixed;fillColor=#f8cecc;strokeColor=#b85450;" vertex="1" parent="1">
          <mxGeometry x="341" y="789.75" width="4" height="4" as="geometry" />
        </mxCell>
        <mxCell id="VNnDimrutekPzXAT0fa--61" value="" style="whiteSpace=wrap;html=1;aspect=fixed;fillColor=#f8cecc;strokeColor=#b85450;" vertex="1" parent="1">
          <mxGeometry x="349" y="781.75" width="4" height="4" as="geometry" />
        </mxCell>
        <mxCell id="VNnDimrutekPzXAT0fa--62" value="" style="whiteSpace=wrap;html=1;aspect=fixed;fillColor=#f8cecc;strokeColor=#b85450;" vertex="1" parent="1">
          <mxGeometry x="349" y="797.75" width="4" height="4" as="geometry" />
        </mxCell>
        <mxCell id="VNnDimrutekPzXAT0fa--63" value="" style="whiteSpace=wrap;html=1;aspect=fixed;fillColor=#f8cecc;strokeColor=#b85450;" vertex="1" parent="1">
          <mxGeometry x="349" y="789.75" width="4" height="4" as="geometry" />
        </mxCell>
        <mxCell id="VNnDimrutekPzXAT0fa--64" value="" style="whiteSpace=wrap;html=1;aspect=fixed;fillColor=#d5e8d4;strokeColor=#82b366;" vertex="1" parent="1">
          <mxGeometry x="378" y="778" width="4" height="4" as="geometry" />
        </mxCell>
        <mxCell id="VNnDimrutekPzXAT0fa--65" value="" style="whiteSpace=wrap;html=1;aspect=fixed;fillColor=#d5e8d4;strokeColor=#82b366;" vertex="1" parent="1">
          <mxGeometry x="391" y="778" width="4" height="4" as="geometry" />
        </mxCell>
        <mxCell id="VNnDimrutekPzXAT0fa--66" value="" style="whiteSpace=wrap;html=1;aspect=fixed;fillColor=#d5e8d4;strokeColor=#82b366;" vertex="1" parent="1">
          <mxGeometry x="404" y="778" width="4" height="4" as="geometry" />
        </mxCell>
        <mxCell id="VNnDimrutekPzXAT0fa--67" value="" style="whiteSpace=wrap;html=1;aspect=fixed;fillColor=#d5e8d4;strokeColor=#82b366;" vertex="1" parent="1">
          <mxGeometry x="378" y="804" width="4" height="4" as="geometry" />
        </mxCell>
        <mxCell id="VNnDimrutekPzXAT0fa--68" value="" style="whiteSpace=wrap;html=1;aspect=fixed;fillColor=#d5e8d4;strokeColor=#82b366;" vertex="1" parent="1">
          <mxGeometry x="391" y="804" width="4" height="4" as="geometry" />
        </mxCell>
        <mxCell id="VNnDimrutekPzXAT0fa--69" value="" style="whiteSpace=wrap;html=1;aspect=fixed;fillColor=#d5e8d4;strokeColor=#82b366;" vertex="1" parent="1">
          <mxGeometry x="404" y="804" width="4" height="4" as="geometry" />
        </mxCell>
        <mxCell id="VNnDimrutekPzXAT0fa--70" value="" style="whiteSpace=wrap;html=1;aspect=fixed;fillColor=#d5e8d4;strokeColor=#82b366;" vertex="1" parent="1">
          <mxGeometry x="378" y="791.5" width="4" height="4" as="geometry" />
        </mxCell>
        <mxCell id="VNnDimrutekPzXAT0fa--71" value="" style="whiteSpace=wrap;html=1;aspect=fixed;fillColor=#d5e8d4;strokeColor=#82b366;" vertex="1" parent="1">
          <mxGeometry x="391" y="791.5" width="4" height="4" as="geometry" />
        </mxCell>
        <mxCell id="VNnDimrutekPzXAT0fa--72" value="" style="whiteSpace=wrap;html=1;aspect=fixed;fillColor=#d5e8d4;strokeColor=#82b366;" vertex="1" parent="1">
          <mxGeometry x="404" y="791.5" width="4" height="4" as="geometry" />
        </mxCell>
        <mxCell id="VNnDimrutekPzXAT0fa--73" value="&lt;p style=&quot;line-height: 30%&quot;&gt;&lt;font style=&quot;font-size: 11px&quot; face=&quot;Times New Roman&quot;&gt;&lt;b&gt;1*1&lt;/b&gt;&lt;/font&gt;&lt;/p&gt;" style="text;html=1;resizable=0;autosize=1;align=center;verticalAlign=middle;points=[];fillColor=none;strokeColor=none;rounded=0;" vertex="1" parent="1">
          <mxGeometry x="305" y="753" width="28" height="31" as="geometry" />
        </mxCell>
        <mxCell id="VNnDimrutekPzXAT0fa--74" value="&lt;p style=&quot;line-height: 30%&quot;&gt;&lt;font style=&quot;font-size: 11px&quot; face=&quot;Times New Roman&quot;&gt;&lt;b&gt;3*3&lt;/b&gt;&lt;/font&gt;&lt;/p&gt;&lt;span style=&quot;color: rgba(0 , 0 , 0 , 0) ; font-size: 0px&quot;&gt;&lt;font face=&quot;Times New Roman&quot;&gt;&lt;b&gt;%3CmxGraphModel%3E%3Croot%3E%3CmxCell%20id%3D%220%22%2F%3E%3CmxCell%20id%3D%221%22%20parent%3D%220%22%2F%3E%3CmxCell%20id%3D%222%22%20value%3D%22%26lt%3Bp%20style%3D%26quot%3Bline-height%3A%2030%25%26quot%3B%26gt%3B%26lt%3Bfont%20style%3D%26quot%3Bfont-size%3A%2011px%26quot%3B%26gt%3B1*1%26lt%3B%2Ffont%26gt%3B%26lt%3B%2Fp%26gt%3B%22%20style%3D%22text%3Bhtml%3D1%3Bresizable%3D0%3Bautosize%3D1%3Balign%3Dcenter%3BverticalAlign%3Dmiddle%3Bpoints%3D%5B%5D%3BfillColor%3Dnone%3BstrokeColor%3Dnone%3Brounded%3D0%3B%22%20vertex%3D%221%22%20parent%3D%221%22%3E%3CmxGeometry%20x%3D%22360%22%20y%3D%227.5%22%20width%3D%2230%22%20height%3D%2230%22%20as%3D%22geometry%22%2F%3E%3C%2FmxCell%3E%3C%2Froot%3E%3C%2FmxGraphModel%3E&lt;/b&gt;&lt;/font&gt;&lt;/span&gt;" style="text;html=1;resizable=0;autosize=1;align=center;verticalAlign=middle;points=[];fillColor=none;strokeColor=none;rounded=0;" vertex="1" parent="1">
          <mxGeometry x="338" y="750.75" width="28" height="49" as="geometry" />
        </mxCell>
        <mxCell id="VNnDimrutekPzXAT0fa--75" value="&lt;p style=&quot;line-height: 30%&quot;&gt;&lt;span style=&quot;font-size: 11px&quot;&gt;&lt;font face=&quot;Times New Roman&quot;&gt;&lt;b&gt;6*6&lt;/b&gt;&lt;/font&gt;&lt;/span&gt;&lt;/p&gt;" style="text;html=1;resizable=0;autosize=1;align=center;verticalAlign=middle;points=[];fillColor=none;strokeColor=none;rounded=0;" vertex="1" parent="1">
          <mxGeometry x="378" y="751.75" width="28" height="31" as="geometry" />
        </mxCell>
        <mxCell id="VNnDimrutekPzXAT0fa--76" value="" style="whiteSpace=wrap;html=1;aspect=fixed;fillColor=#ffe6cc;strokeColor=#d79b00;fontStyle=1" vertex="1" parent="1">
          <mxGeometry x="313" y="1113.5" width="10" height="10" as="geometry" />
        </mxCell>
        <mxCell id="VNnDimrutekPzXAT0fa--77" value="" style="whiteSpace=wrap;html=1;aspect=fixed;strokeColor=#b85450;fillColor=none;fontStyle=1" vertex="1" parent="1">
          <mxGeometry x="340" y="1106.75" width="20" height="20" as="geometry" />
        </mxCell>
        <mxCell id="VNnDimrutekPzXAT0fa--78" value="" style="whiteSpace=wrap;html=1;aspect=fixed;strokeColor=#82b366;fillColor=none;fontStyle=1" vertex="1" parent="1">
          <mxGeometry x="377" y="1106" width="30" height="30" as="geometry" />
        </mxCell>
        <mxCell id="VNnDimrutekPzXAT0fa--79" value="" style="whiteSpace=wrap;html=1;aspect=fixed;fillColor=#f8cecc;strokeColor=#b85450;fontStyle=1" vertex="1" parent="1">
          <mxGeometry x="356" y="1106.75" width="4" height="4" as="geometry" />
        </mxCell>
        <mxCell id="VNnDimrutekPzXAT0fa--80" value="" style="whiteSpace=wrap;html=1;aspect=fixed;fillColor=#f8cecc;strokeColor=#b85450;fontStyle=1" vertex="1" parent="1">
          <mxGeometry x="340" y="1106.75" width="4" height="4" as="geometry" />
        </mxCell>
        <mxCell id="VNnDimrutekPzXAT0fa--81" value="" style="whiteSpace=wrap;html=1;aspect=fixed;fillColor=#f8cecc;strokeColor=#b85450;fontStyle=1" vertex="1" parent="1">
          <mxGeometry x="340" y="1122.75" width="4" height="4" as="geometry" />
        </mxCell>
        <mxCell id="VNnDimrutekPzXAT0fa--82" value="" style="whiteSpace=wrap;html=1;aspect=fixed;fillColor=#f8cecc;strokeColor=#b85450;fontStyle=1" vertex="1" parent="1">
          <mxGeometry x="356" y="1122.75" width="4" height="4" as="geometry" />
        </mxCell>
        <mxCell id="VNnDimrutekPzXAT0fa--83" value="" style="whiteSpace=wrap;html=1;aspect=fixed;fillColor=#f8cecc;strokeColor=#b85450;fontStyle=1" vertex="1" parent="1">
          <mxGeometry x="356" y="1114.75" width="4" height="4" as="geometry" />
        </mxCell>
        <mxCell id="VNnDimrutekPzXAT0fa--84" value="" style="whiteSpace=wrap;html=1;aspect=fixed;fillColor=#f8cecc;strokeColor=#b85450;fontStyle=1" vertex="1" parent="1">
          <mxGeometry x="340" y="1114.75" width="4" height="4" as="geometry" />
        </mxCell>
        <mxCell id="VNnDimrutekPzXAT0fa--85" value="" style="whiteSpace=wrap;html=1;aspect=fixed;fillColor=#f8cecc;strokeColor=#b85450;fontStyle=1" vertex="1" parent="1">
          <mxGeometry x="348" y="1106.75" width="4" height="4" as="geometry" />
        </mxCell>
        <mxCell id="VNnDimrutekPzXAT0fa--86" value="" style="whiteSpace=wrap;html=1;aspect=fixed;fillColor=#f8cecc;strokeColor=#b85450;fontStyle=1" vertex="1" parent="1">
          <mxGeometry x="348" y="1122.75" width="4" height="4" as="geometry" />
        </mxCell>
        <mxCell id="VNnDimrutekPzXAT0fa--87" value="" style="whiteSpace=wrap;html=1;aspect=fixed;fillColor=#f8cecc;strokeColor=#b85450;fontStyle=1" vertex="1" parent="1">
          <mxGeometry x="348" y="1114.75" width="4" height="4" as="geometry" />
        </mxCell>
        <mxCell id="VNnDimrutekPzXAT0fa--88" value="" style="whiteSpace=wrap;html=1;aspect=fixed;fillColor=#d5e8d4;strokeColor=#82b366;fontStyle=1" vertex="1" parent="1">
          <mxGeometry x="377" y="1106" width="4" height="4" as="geometry" />
        </mxCell>
        <mxCell id="VNnDimrutekPzXAT0fa--89" value="" style="whiteSpace=wrap;html=1;aspect=fixed;fillColor=#d5e8d4;strokeColor=#82b366;fontStyle=1" vertex="1" parent="1">
          <mxGeometry x="390" y="1106" width="4" height="4" as="geometry" />
        </mxCell>
        <mxCell id="VNnDimrutekPzXAT0fa--90" value="" style="whiteSpace=wrap;html=1;aspect=fixed;fillColor=#d5e8d4;strokeColor=#82b366;fontStyle=1" vertex="1" parent="1">
          <mxGeometry x="403" y="1106" width="4" height="4" as="geometry" />
        </mxCell>
        <mxCell id="VNnDimrutekPzXAT0fa--91" value="" style="whiteSpace=wrap;html=1;aspect=fixed;fillColor=#d5e8d4;strokeColor=#82b366;fontStyle=1" vertex="1" parent="1">
          <mxGeometry x="377" y="1132" width="4" height="4" as="geometry" />
        </mxCell>
        <mxCell id="VNnDimrutekPzXAT0fa--92" value="" style="whiteSpace=wrap;html=1;aspect=fixed;fillColor=#d5e8d4;strokeColor=#82b366;fontStyle=1" vertex="1" parent="1">
          <mxGeometry x="390" y="1132" width="4" height="4" as="geometry" />
        </mxCell>
        <mxCell id="VNnDimrutekPzXAT0fa--93" value="" style="whiteSpace=wrap;html=1;aspect=fixed;fillColor=#d5e8d4;strokeColor=#82b366;fontStyle=1" vertex="1" parent="1">
          <mxGeometry x="403" y="1132" width="4" height="4" as="geometry" />
        </mxCell>
        <mxCell id="VNnDimrutekPzXAT0fa--94" value="" style="whiteSpace=wrap;html=1;aspect=fixed;fillColor=#d5e8d4;strokeColor=#82b366;fontStyle=1" vertex="1" parent="1">
          <mxGeometry x="377" y="1119.5" width="4" height="4" as="geometry" />
        </mxCell>
        <mxCell id="VNnDimrutekPzXAT0fa--95" value="" style="whiteSpace=wrap;html=1;aspect=fixed;fillColor=#d5e8d4;strokeColor=#82b366;fontStyle=1" vertex="1" parent="1">
          <mxGeometry x="390" y="1119.5" width="4" height="4" as="geometry" />
        </mxCell>
        <mxCell id="VNnDimrutekPzXAT0fa--96" value="" style="whiteSpace=wrap;html=1;aspect=fixed;fillColor=#d5e8d4;strokeColor=#82b366;fontStyle=1" vertex="1" parent="1">
          <mxGeometry x="403" y="1119.5" width="4" height="4" as="geometry" />
        </mxCell>
        <mxCell id="VNnDimrutekPzXAT0fa--97" value="&lt;p style=&quot;line-height: 30%&quot;&gt;&lt;font style=&quot;font-size: 11px&quot; face=&quot;Times New Roman&quot;&gt;3*3&lt;/font&gt;&lt;/p&gt;&lt;span style=&quot;color: rgba(0 , 0 , 0 , 0) ; font-size: 0px&quot;&gt;&lt;font face=&quot;Times New Roman&quot;&gt;%3CmxGraphModel%3E%3Croot%3E%3CmxCell%20id%3D%220%22%2F%3E%3CmxCell%20id%3D%221%22%20parent%3D%220%22%2F%3E%3CmxCell%20id%3D%222%22%20value%3D%22%26lt%3Bp%20style%3D%26quot%3Bline-height%3A%2030%25%26quot%3B%26gt%3B%26lt%3Bfont%20style%3D%26quot%3Bfont-size%3A%2011px%26quot%3B%26gt%3B1*1%26lt%3B%2Ffont%26gt%3B%26lt%3B%2Fp%26gt%3B%22%20style%3D%22text%3Bhtml%3D1%3Bresizable%3D0%3Bautosize%3D1%3Balign%3Dcenter%3BverticalAlign%3Dmiddle%3Bpoints%3D%5B%5D%3BfillColor%3Dnone%3BstrokeColor%3Dnone%3Brounded%3D0%3B%22%20vertex%3D%221%22%20parent%3D%221%22%3E%3CmxGeometry%20x%3D%22360%22%20y%3D%227.5%22%20width%3D%2230%22%20height%3D%2230%22%20as%3D%22geometry%22%2F%3E%3C%2FmxCell%3E%3C%2Froot%3E%3C%2FmxGraphModel%3E&lt;/font&gt;&lt;/span&gt;" style="text;html=1;resizable=0;autosize=1;align=center;verticalAlign=middle;points=[];fillColor=none;strokeColor=none;rounded=0;fontStyle=1" vertex="1" parent="1">
          <mxGeometry x="335" y="1073.75" width="28" height="49" as="geometry" />
        </mxCell>
        <mxCell id="VNnDimrutekPzXAT0fa--98" value="&lt;p style=&quot;line-height: 30%&quot;&gt;&lt;span style=&quot;font-size: 11px&quot;&gt;&lt;font face=&quot;Times New Roman&quot;&gt;6*6&lt;/font&gt;&lt;/span&gt;&lt;/p&gt;" style="text;html=1;resizable=0;autosize=1;align=center;verticalAlign=middle;points=[];fillColor=none;strokeColor=none;rounded=0;fontStyle=1" vertex="1" parent="1">
          <mxGeometry x="378" y="1075" width="28" height="31" as="geometry" />
        </mxCell>
        <mxCell id="VNnDimrutekPzXAT0fa--99" value="" style="whiteSpace=wrap;html=1;aspect=fixed;fillColor=#ffe6cc;strokeColor=#d79b00;" vertex="1" parent="1">
          <mxGeometry x="312" y="1268.93" width="10" height="10" as="geometry" />
        </mxCell>
        <mxCell id="VNnDimrutekPzXAT0fa--100" value="" style="whiteSpace=wrap;html=1;aspect=fixed;strokeColor=#b85450;fillColor=none;" vertex="1" parent="1">
          <mxGeometry x="340" y="1263.75" width="20" height="20" as="geometry" />
        </mxCell>
        <mxCell id="VNnDimrutekPzXAT0fa--101" value="" style="whiteSpace=wrap;html=1;aspect=fixed;strokeColor=#82b366;fillColor=none;" vertex="1" parent="1">
          <mxGeometry x="377" y="1257" width="30" height="30" as="geometry" />
        </mxCell>
        <mxCell id="VNnDimrutekPzXAT0fa--102" value="" style="whiteSpace=wrap;html=1;aspect=fixed;fillColor=#f8cecc;strokeColor=#b85450;" vertex="1" parent="1">
          <mxGeometry x="356" y="1263.75" width="4" height="4" as="geometry" />
        </mxCell>
        <mxCell id="VNnDimrutekPzXAT0fa--103" value="" style="whiteSpace=wrap;html=1;aspect=fixed;fillColor=#f8cecc;strokeColor=#b85450;" vertex="1" parent="1">
          <mxGeometry x="340" y="1263.75" width="4" height="4" as="geometry" />
        </mxCell>
        <mxCell id="VNnDimrutekPzXAT0fa--104" value="" style="whiteSpace=wrap;html=1;aspect=fixed;fillColor=#f8cecc;strokeColor=#b85450;" vertex="1" parent="1">
          <mxGeometry x="340" y="1279.75" width="4" height="4" as="geometry" />
        </mxCell>
        <mxCell id="VNnDimrutekPzXAT0fa--105" value="" style="whiteSpace=wrap;html=1;aspect=fixed;fillColor=#f8cecc;strokeColor=#b85450;" vertex="1" parent="1">
          <mxGeometry x="356" y="1279.75" width="4" height="4" as="geometry" />
        </mxCell>
        <mxCell id="VNnDimrutekPzXAT0fa--106" value="" style="whiteSpace=wrap;html=1;aspect=fixed;fillColor=#f8cecc;strokeColor=#b85450;" vertex="1" parent="1">
          <mxGeometry x="356" y="1271.75" width="4" height="4" as="geometry" />
        </mxCell>
        <mxCell id="VNnDimrutekPzXAT0fa--107" value="" style="whiteSpace=wrap;html=1;aspect=fixed;fillColor=#f8cecc;strokeColor=#b85450;" vertex="1" parent="1">
          <mxGeometry x="340" y="1271.75" width="4" height="4" as="geometry" />
        </mxCell>
        <mxCell id="VNnDimrutekPzXAT0fa--108" value="" style="whiteSpace=wrap;html=1;aspect=fixed;fillColor=#f8cecc;strokeColor=#b85450;" vertex="1" parent="1">
          <mxGeometry x="348" y="1263.75" width="4" height="4" as="geometry" />
        </mxCell>
        <mxCell id="VNnDimrutekPzXAT0fa--109" value="" style="whiteSpace=wrap;html=1;aspect=fixed;fillColor=#f8cecc;strokeColor=#b85450;" vertex="1" parent="1">
          <mxGeometry x="348" y="1279.75" width="4" height="4" as="geometry" />
        </mxCell>
        <mxCell id="VNnDimrutekPzXAT0fa--110" value="" style="whiteSpace=wrap;html=1;aspect=fixed;fillColor=#f8cecc;strokeColor=#b85450;" vertex="1" parent="1">
          <mxGeometry x="348" y="1271.75" width="4" height="4" as="geometry" />
        </mxCell>
        <mxCell id="VNnDimrutekPzXAT0fa--111" value="" style="whiteSpace=wrap;html=1;aspect=fixed;fillColor=#d5e8d4;strokeColor=#82b366;" vertex="1" parent="1">
          <mxGeometry x="377" y="1257" width="4" height="4" as="geometry" />
        </mxCell>
        <mxCell id="VNnDimrutekPzXAT0fa--112" value="" style="whiteSpace=wrap;html=1;aspect=fixed;fillColor=#d5e8d4;strokeColor=#82b366;" vertex="1" parent="1">
          <mxGeometry x="390" y="1257" width="4" height="4" as="geometry" />
        </mxCell>
        <mxCell id="VNnDimrutekPzXAT0fa--113" value="" style="whiteSpace=wrap;html=1;aspect=fixed;fillColor=#d5e8d4;strokeColor=#82b366;" vertex="1" parent="1">
          <mxGeometry x="403" y="1257" width="4" height="4" as="geometry" />
        </mxCell>
        <mxCell id="VNnDimrutekPzXAT0fa--114" value="" style="whiteSpace=wrap;html=1;aspect=fixed;fillColor=#d5e8d4;strokeColor=#82b366;" vertex="1" parent="1">
          <mxGeometry x="377" y="1283" width="4" height="4" as="geometry" />
        </mxCell>
        <mxCell id="VNnDimrutekPzXAT0fa--115" value="" style="whiteSpace=wrap;html=1;aspect=fixed;fillColor=#d5e8d4;strokeColor=#82b366;" vertex="1" parent="1">
          <mxGeometry x="390" y="1283" width="4" height="4" as="geometry" />
        </mxCell>
        <mxCell id="VNnDimrutekPzXAT0fa--116" value="" style="whiteSpace=wrap;html=1;aspect=fixed;fillColor=#d5e8d4;strokeColor=#82b366;" vertex="1" parent="1">
          <mxGeometry x="403" y="1283" width="4" height="4" as="geometry" />
        </mxCell>
        <mxCell id="VNnDimrutekPzXAT0fa--117" value="" style="whiteSpace=wrap;html=1;aspect=fixed;fillColor=#d5e8d4;strokeColor=#82b366;" vertex="1" parent="1">
          <mxGeometry x="377" y="1270.5" width="4" height="4" as="geometry" />
        </mxCell>
        <mxCell id="VNnDimrutekPzXAT0fa--118" value="" style="whiteSpace=wrap;html=1;aspect=fixed;fillColor=#d5e8d4;strokeColor=#82b366;" vertex="1" parent="1">
          <mxGeometry x="390" y="1270.5" width="4" height="4" as="geometry" />
        </mxCell>
        <mxCell id="VNnDimrutekPzXAT0fa--119" value="" style="whiteSpace=wrap;html=1;aspect=fixed;fillColor=#d5e8d4;strokeColor=#82b366;" vertex="1" parent="1">
          <mxGeometry x="403" y="1270.5" width="4" height="4" as="geometry" />
        </mxCell>
        <mxCell id="VNnDimrutekPzXAT0fa--120" value="&lt;p style=&quot;line-height: 30%&quot;&gt;&lt;font style=&quot;font-size: 11px&quot; face=&quot;Times New Roman&quot;&gt;&lt;b&gt;3*3&lt;/b&gt;&lt;/font&gt;&lt;/p&gt;&lt;span style=&quot;color: rgba(0 , 0 , 0 , 0) ; font-size: 0px&quot;&gt;&lt;font face=&quot;Times New Roman&quot;&gt;&lt;b&gt;%3CmxGraphModel%3E%3Croot%3E%3CmxCell%20id%3D%220%22%2F%3E%3CmxCell%20id%3D%221%22%20parent%3D%220%22%2F%3E%3CmxCell%20id%3D%222%22%20value%3D%22%26lt%3Bp%20style%3D%26quot%3Bline-height%3A%2030%25%26quot%3B%26gt%3B%26lt%3Bfont%20style%3D%26quot%3Bfont-size%3A%2011px%26quot%3B%26gt%3B1*1%26lt%3B%2Ffont%26gt%3B%26lt%3B%2Fp%26gt%3B%22%20style%3D%22text%3Bhtml%3D1%3Bresizable%3D0%3Bautosize%3D1%3Balign%3Dcenter%3BverticalAlign%3Dmiddle%3Bpoints%3D%5B%5D%3BfillColor%3Dnone%3BstrokeColor%3Dnone%3Brounded%3D0%3B%22%20vertex%3D%221%22%20parent%3D%221%22%3E%3CmxGeometry%20x%3D%22360%22%20y%3D%227.5%22%20width%3D%2230%22%20height%3D%2230%22%20as%3D%22geometry%22%2F%3E%3C%2FmxCell%3E%3C%2Froot%3E%3C%2FmxGraphModel%3E&lt;/b&gt;&lt;/font&gt;&lt;/span&gt;" style="text;html=1;resizable=0;autosize=1;align=center;verticalAlign=middle;points=[];fillColor=none;strokeColor=none;rounded=0;" vertex="1" parent="1">
          <mxGeometry x="337" y="1228.75" width="28" height="49" as="geometry" />
        </mxCell>
        <mxCell id="VNnDimrutekPzXAT0fa--121" value="&lt;p style=&quot;line-height: 30%&quot;&gt;&lt;span style=&quot;font-size: 11px&quot;&gt;&lt;b&gt;&lt;font face=&quot;Times New Roman&quot;&gt;6*6&lt;/font&gt;&lt;/b&gt;&lt;/span&gt;&lt;/p&gt;" style="text;html=1;resizable=0;autosize=1;align=center;verticalAlign=middle;points=[];fillColor=none;strokeColor=none;rounded=0;" vertex="1" parent="1">
          <mxGeometry x="380" y="1230" width="28" height="31" as="geometry" />
        </mxCell>
        <mxCell id="VNnDimrutekPzXAT0fa--122" value="" style="whiteSpace=wrap;html=1;aspect=fixed;fillColor=#ffe6cc;strokeColor=#d79b00;" vertex="1" parent="1">
          <mxGeometry x="313" y="936.75" width="10" height="10" as="geometry" />
        </mxCell>
        <mxCell id="VNnDimrutekPzXAT0fa--123" value="" style="whiteSpace=wrap;html=1;aspect=fixed;strokeColor=#b85450;fillColor=none;" vertex="1" parent="1">
          <mxGeometry x="339" y="932.75" width="20" height="20" as="geometry" />
        </mxCell>
        <mxCell id="VNnDimrutekPzXAT0fa--124" value="" style="whiteSpace=wrap;html=1;aspect=fixed;strokeColor=#82b366;fillColor=none;" vertex="1" parent="1">
          <mxGeometry x="378" y="928.75" width="30" height="30" as="geometry" />
        </mxCell>
        <mxCell id="VNnDimrutekPzXAT0fa--125" value="" style="whiteSpace=wrap;html=1;aspect=fixed;fillColor=#f8cecc;strokeColor=#b85450;" vertex="1" parent="1">
          <mxGeometry x="355" y="932.75" width="4" height="4" as="geometry" />
        </mxCell>
        <mxCell id="VNnDimrutekPzXAT0fa--126" value="" style="whiteSpace=wrap;html=1;aspect=fixed;fillColor=#f8cecc;strokeColor=#b85450;" vertex="1" parent="1">
          <mxGeometry x="339" y="932.75" width="4" height="4" as="geometry" />
        </mxCell>
        <mxCell id="VNnDimrutekPzXAT0fa--127" value="" style="whiteSpace=wrap;html=1;aspect=fixed;fillColor=#f8cecc;strokeColor=#b85450;" vertex="1" parent="1">
          <mxGeometry x="339" y="948.75" width="4" height="4" as="geometry" />
        </mxCell>
        <mxCell id="VNnDimrutekPzXAT0fa--128" value="" style="whiteSpace=wrap;html=1;aspect=fixed;fillColor=#f8cecc;strokeColor=#b85450;" vertex="1" parent="1">
          <mxGeometry x="355" y="948.75" width="4" height="4" as="geometry" />
        </mxCell>
        <mxCell id="VNnDimrutekPzXAT0fa--129" value="" style="whiteSpace=wrap;html=1;aspect=fixed;fillColor=#f8cecc;strokeColor=#b85450;" vertex="1" parent="1">
          <mxGeometry x="355" y="940.75" width="4" height="4" as="geometry" />
        </mxCell>
        <mxCell id="VNnDimrutekPzXAT0fa--130" value="" style="whiteSpace=wrap;html=1;aspect=fixed;fillColor=#f8cecc;strokeColor=#b85450;" vertex="1" parent="1">
          <mxGeometry x="339" y="940.75" width="4" height="4" as="geometry" />
        </mxCell>
        <mxCell id="VNnDimrutekPzXAT0fa--131" value="" style="whiteSpace=wrap;html=1;aspect=fixed;fillColor=#f8cecc;strokeColor=#b85450;" vertex="1" parent="1">
          <mxGeometry x="347" y="932.75" width="4" height="4" as="geometry" />
        </mxCell>
        <mxCell id="VNnDimrutekPzXAT0fa--132" value="" style="whiteSpace=wrap;html=1;aspect=fixed;fillColor=#f8cecc;strokeColor=#b85450;" vertex="1" parent="1">
          <mxGeometry x="347" y="948.75" width="4" height="4" as="geometry" />
        </mxCell>
        <mxCell id="VNnDimrutekPzXAT0fa--133" value="" style="whiteSpace=wrap;html=1;aspect=fixed;fillColor=#f8cecc;strokeColor=#b85450;" vertex="1" parent="1">
          <mxGeometry x="347" y="940.75" width="4" height="4" as="geometry" />
        </mxCell>
        <mxCell id="VNnDimrutekPzXAT0fa--134" value="" style="whiteSpace=wrap;html=1;aspect=fixed;fillColor=#d5e8d4;strokeColor=#82b366;" vertex="1" parent="1">
          <mxGeometry x="378" y="928.75" width="4" height="4" as="geometry" />
        </mxCell>
        <mxCell id="VNnDimrutekPzXAT0fa--135" value="" style="whiteSpace=wrap;html=1;aspect=fixed;fillColor=#d5e8d4;strokeColor=#82b366;" vertex="1" parent="1">
          <mxGeometry x="391" y="928.75" width="4" height="4" as="geometry" />
        </mxCell>
        <mxCell id="VNnDimrutekPzXAT0fa--136" value="" style="whiteSpace=wrap;html=1;aspect=fixed;fillColor=#d5e8d4;strokeColor=#82b366;" vertex="1" parent="1">
          <mxGeometry x="404" y="928.75" width="4" height="4" as="geometry" />
        </mxCell>
        <mxCell id="VNnDimrutekPzXAT0fa--137" value="" style="whiteSpace=wrap;html=1;aspect=fixed;fillColor=#d5e8d4;strokeColor=#82b366;" vertex="1" parent="1">
          <mxGeometry x="378" y="954.75" width="4" height="4" as="geometry" />
        </mxCell>
        <mxCell id="VNnDimrutekPzXAT0fa--138" value="" style="whiteSpace=wrap;html=1;aspect=fixed;fillColor=#d5e8d4;strokeColor=#82b366;" vertex="1" parent="1">
          <mxGeometry x="391" y="954.75" width="4" height="4" as="geometry" />
        </mxCell>
        <mxCell id="VNnDimrutekPzXAT0fa--139" value="" style="whiteSpace=wrap;html=1;aspect=fixed;fillColor=#d5e8d4;strokeColor=#82b366;" vertex="1" parent="1">
          <mxGeometry x="404" y="954.75" width="4" height="4" as="geometry" />
        </mxCell>
        <mxCell id="VNnDimrutekPzXAT0fa--140" value="" style="whiteSpace=wrap;html=1;aspect=fixed;fillColor=#d5e8d4;strokeColor=#82b366;" vertex="1" parent="1">
          <mxGeometry x="378" y="942.25" width="4" height="4" as="geometry" />
        </mxCell>
        <mxCell id="VNnDimrutekPzXAT0fa--141" value="" style="whiteSpace=wrap;html=1;aspect=fixed;fillColor=#d5e8d4;strokeColor=#82b366;" vertex="1" parent="1">
          <mxGeometry x="391" y="942.25" width="4" height="4" as="geometry" />
        </mxCell>
        <mxCell id="VNnDimrutekPzXAT0fa--142" value="" style="whiteSpace=wrap;html=1;aspect=fixed;fillColor=#d5e8d4;strokeColor=#82b366;" vertex="1" parent="1">
          <mxGeometry x="404" y="942.25" width="4" height="4" as="geometry" />
        </mxCell>
        <mxCell id="VNnDimrutekPzXAT0fa--143" value="&lt;p style=&quot;line-height: 30%&quot;&gt;&lt;font style=&quot;font-size: 11px&quot; face=&quot;Times New Roman&quot;&gt;&lt;b&gt;3*3&lt;/b&gt;&lt;/font&gt;&lt;/p&gt;&lt;span style=&quot;color: rgba(0 , 0 , 0 , 0) ; font-size: 0px&quot;&gt;&lt;font face=&quot;Times New Roman&quot;&gt;&lt;b&gt;%3CmxGraphModel%3E%3Croot%3E%3CmxCell%20id%3D%220%22%2F%3E%3CmxCell%20id%3D%221%22%20parent%3D%220%22%2F%3E%3CmxCell%20id%3D%222%22%20value%3D%22%26lt%3Bp%20style%3D%26quot%3Bline-height%3A%2030%25%26quot%3B%26gt%3B%26lt%3Bfont%20style%3D%26quot%3Bfont-size%3A%2011px%26quot%3B%26gt%3B1*1%26lt%3B%2Ffont%26gt%3B%26lt%3B%2Fp%26gt%3B%22%20style%3D%22text%3Bhtml%3D1%3Bresizable%3D0%3Bautosize%3D1%3Balign%3Dcenter%3BverticalAlign%3Dmiddle%3Bpoints%3D%5B%5D%3BfillColor%3Dnone%3BstrokeColor%3Dnone%3Brounded%3D0%3B%22%20vertex%3D%221%22%20parent%3D%221%22%3E%3CmxGeometry%20x%3D%22360%22%20y%3D%227.5%22%20width%3D%2230%22%20height%3D%2230%22%20as%3D%22geometry%22%2F%3E%3C%2FmxCell%3E%3C%2Froot%3E%3C%2FmxGraphModel%3E&lt;/b&gt;&lt;/font&gt;&lt;/span&gt;" style="text;html=1;resizable=0;autosize=1;align=center;verticalAlign=middle;points=[];fillColor=none;strokeColor=none;rounded=0;" vertex="1" parent="1">
          <mxGeometry x="337" y="902.5" width="28" height="49" as="geometry" />
        </mxCell>
        <mxCell id="VNnDimrutekPzXAT0fa--144" value="&lt;p style=&quot;line-height: 30%&quot;&gt;&lt;span style=&quot;font-size: 11px&quot;&gt;&lt;font face=&quot;Times New Roman&quot;&gt;&lt;b&gt;6*6&lt;/b&gt;&lt;/font&gt;&lt;/span&gt;&lt;/p&gt;" style="text;html=1;resizable=0;autosize=1;align=center;verticalAlign=middle;points=[];fillColor=none;strokeColor=none;rounded=0;" vertex="1" parent="1">
          <mxGeometry x="378" y="903" width="28" height="31" as="geometry" />
        </mxCell>
        <mxCell id="VNnDimrutekPzXAT0fa--145" value="&lt;p style=&quot;line-height: 30%&quot;&gt;&lt;font style=&quot;font-size: 11px&quot; face=&quot;Times New Roman&quot;&gt;&lt;b&gt;1*1&lt;/b&gt;&lt;/font&gt;&lt;/p&gt;" style="text;html=1;resizable=0;autosize=1;align=center;verticalAlign=middle;points=[];fillColor=none;strokeColor=none;rounded=0;" vertex="1" parent="1">
          <mxGeometry x="304" y="905" width="28" height="31" as="geometry" />
        </mxCell>
        <mxCell id="VNnDimrutekPzXAT0fa--146" value="&lt;p style=&quot;line-height: 30%&quot;&gt;&lt;font style=&quot;font-size: 11px&quot; face=&quot;Times New Roman&quot;&gt;&lt;b&gt;1*1&lt;/b&gt;&lt;/font&gt;&lt;/p&gt;" style="text;html=1;resizable=0;autosize=1;align=center;verticalAlign=middle;points=[];fillColor=none;strokeColor=none;rounded=0;" vertex="1" parent="1">
          <mxGeometry x="303" y="1076" width="28" height="31" as="geometry" />
        </mxCell>
        <mxCell id="VNnDimrutekPzXAT0fa--147" value="&lt;p style=&quot;line-height: 30%&quot;&gt;&lt;font style=&quot;font-size: 11px&quot; face=&quot;Times New Roman&quot;&gt;&lt;b&gt;1*1&lt;/b&gt;&lt;/font&gt;&lt;/p&gt;" style="text;html=1;resizable=0;autosize=1;align=center;verticalAlign=middle;points=[];fillColor=none;strokeColor=none;rounded=0;" vertex="1" parent="1">
          <mxGeometry x="303" y="1231.25" width="28" height="31" as="geometry" />
        </mxCell>
        <mxCell id="VNnDimrutekPzXAT0fa--149" value="&lt;font face=&quot;Times New Roman&quot;&gt;&lt;b&gt;Y&lt;sub&gt;r&lt;/sub&gt;&lt;/b&gt;&lt;/font&gt;" style="whiteSpace=wrap;html=1;aspect=fixed;fillColor=#cce5ff;strokeColor=#36393d;" vertex="1" parent="1">
          <mxGeometry x="748.5" y="914.75" width="40" height="40" as="geometry" />
        </mxCell>
        <mxCell id="VNnDimrutekPzXAT0fa--150" value="A&lt;sub&gt;d&lt;/sub&gt;" style="whiteSpace=wrap;html=1;aspect=fixed;strokeColor=#36393d;fillColor=#F8ECEE;" vertex="1" parent="1">
          <mxGeometry x="655" y="1046" width="40" height="40" as="geometry" />
        </mxCell>
        <mxCell id="VNnDimrutekPzXAT0fa--151" value="A&lt;sub&gt;r&lt;/sub&gt;" style="whiteSpace=wrap;html=1;aspect=fixed;strokeColor=#36393d;fillColor=#F8ECEE;" vertex="1" parent="1">
          <mxGeometry x="657" y="978" width="40" height="40" as="geometry" />
        </mxCell>
        <mxCell id="VNnDimrutekPzXAT0fa--152" value="&lt;font face=&quot;Times New Roman&quot;&gt;&lt;b&gt;Y&lt;sub&gt;d&lt;/sub&gt;&lt;/b&gt;&lt;/font&gt;" style="whiteSpace=wrap;html=1;aspect=fixed;fillColor=#cce5ff;strokeColor=#36393d;" vertex="1" parent="1">
          <mxGeometry x="748.5" y="1150" width="40" height="40" as="geometry" />
        </mxCell>
        <mxCell id="VNnDimrutekPzXAT0fa--153" value="&lt;b&gt;&lt;font face=&quot;Times New Roman&quot;&gt;Od&lt;/font&gt;&lt;/b&gt;" style="whiteSpace=wrap;html=1;aspect=fixed;fillColor=#cce5ff;strokeColor=#36393d;" vertex="1" parent="1">
          <mxGeometry x="869" y="1148.5" width="40" height="40" as="geometry" />
        </mxCell>
        <mxCell id="VNnDimrutekPzXAT0fa--154" value="&lt;font face=&quot;Times New Roman&quot;&gt;&lt;b&gt;X&lt;sup&gt;r&lt;/sup&gt;&lt;/b&gt;&lt;/font&gt;" style="text;html=1;resizable=0;autosize=1;align=center;verticalAlign=middle;points=[];fillColor=none;strokeColor=none;rounded=0;" vertex="1" parent="1">
          <mxGeometry x="83" y="889.5" width="24" height="23" as="geometry" />
        </mxCell>
        <mxCell id="VNnDimrutekPzXAT0fa--155" value="&lt;b&gt;&lt;font face=&quot;Times New Roman&quot;&gt;X&lt;sup&gt;d&lt;/sup&gt;&lt;/font&gt;&lt;/b&gt;" style="text;html=1;resizable=0;autosize=1;align=center;verticalAlign=middle;points=[];fillColor=none;strokeColor=none;rounded=0;" vertex="1" parent="1">
          <mxGeometry x="83" y="1217" width="25" height="23" as="geometry" />
        </mxCell>
        <mxCell id="VNnDimrutekPzXAT0fa--156" value="&lt;b&gt;&lt;font face=&quot;Times New Roman&quot;&gt;1*1&lt;/font&gt;&lt;/b&gt;" style="rounded=0;whiteSpace=wrap;html=1;strokeColor=#36393d;fillColor=#CCE5FF;" vertex="1" parent="1">
          <mxGeometry x="180" y="855" width="30" height="30" as="geometry" />
        </mxCell>
        <mxCell id="VNnDimrutekPzXAT0fa--157" value="&lt;font face=&quot;Times New Roman&quot;&gt;&lt;b&gt;1*1&lt;/b&gt;&lt;/font&gt;" style="rounded=0;whiteSpace=wrap;html=1;strokeColor=#36393d;fillColor=#CCE5FF;" vertex="1" parent="1">
          <mxGeometry x="180" y="928.75" width="30" height="30" as="geometry" />
        </mxCell>
        <mxCell id="VNnDimrutekPzXAT0fa--158" value="&lt;font face=&quot;Times New Roman&quot;&gt;&lt;b&gt;1*1&lt;/b&gt;&lt;/font&gt;" style="rounded=0;whiteSpace=wrap;html=1;strokeColor=#36393d;fillColor=#CCE5FF;" vertex="1" parent="1">
          <mxGeometry x="180" y="1255.25" width="30" height="30" as="geometry" />
        </mxCell>
        <mxCell id="VNnDimrutekPzXAT0fa--159" value="" style="shape=cube;whiteSpace=wrap;html=1;boundedLbl=1;backgroundOutline=1;darkOpacity=0.05;darkOpacity2=0.1;size=6;rotation=90;fillColor=#fff2cc;strokeColor=#d6b656;" vertex="1" parent="1">
          <mxGeometry x="243.5" y="783.81" width="57" height="16.37" as="geometry" />
        </mxCell>
        <mxCell id="VNnDimrutekPzXAT0fa--160" style="edgeStyle=orthogonalEdgeStyle;rounded=0;orthogonalLoop=1;jettySize=auto;html=1;entryX=0.5;entryY=0;entryDx=0;entryDy=0;strokeWidth=2;exitX=0.371;exitY=0.051;exitDx=0;exitDy=0;exitPerimeter=0;" edge="1" parent="1" source="VNnDimrutekPzXAT0fa--212" target="VNnDimrutekPzXAT0fa--17">
          <mxGeometry relative="1" as="geometry">
            <Array as="points">
              <mxPoint x="284" y="863" />
              <mxPoint x="478" y="863" />
            </Array>
            <mxPoint x="284" y="885" as="sourcePoint" />
          </mxGeometry>
        </mxCell>
        <mxCell id="VNnDimrutekPzXAT0fa--161" value="&lt;span style=&quot;color: rgb(51 , 51 , 51) ; font-family: &amp;#34;pingfang sc&amp;#34; , &amp;#34;lantinghei sc&amp;#34; , &amp;#34;microsoft yahei&amp;#34; , &amp;#34;arial&amp;#34; , , sans-serif , &amp;#34;tahoma&amp;#34; ; font-size: 16px ; background-color: rgb(255 , 255 , 255)&quot;&gt;&lt;font face=&quot;Times New Roman&quot;&gt;&lt;b&gt;Φ&lt;sup&gt;r&lt;/sup&gt;&lt;/b&gt;&lt;/font&gt;&lt;/span&gt;" style="text;html=1;resizable=0;autosize=1;align=center;verticalAlign=middle;points=[];fillColor=none;strokeColor=none;rounded=0;" vertex="1" parent="1">
          <mxGeometry x="221" y="841" width="29" height="24" as="geometry" />
        </mxCell>
        <mxCell id="VNnDimrutekPzXAT0fa--162" value="&lt;span style=&quot;color: rgb(51 , 51 , 51) ; font-family: &amp;#34;pingfang sc&amp;#34; , &amp;#34;lantinghei sc&amp;#34; , &amp;#34;microsoft yahei&amp;#34; , &amp;#34;arial&amp;#34; , , sans-serif , &amp;#34;tahoma&amp;#34; ; font-size: 16px ; background-color: rgb(255 , 255 , 255)&quot;&gt;&lt;b&gt;&lt;font face=&quot;Times New Roman&quot;&gt;Φ&lt;sup&gt;d&lt;/sup&gt;&lt;/font&gt;&lt;/b&gt;&lt;/span&gt;" style="text;html=1;resizable=0;autosize=1;align=center;verticalAlign=middle;points=[];fillColor=none;strokeColor=none;rounded=0;" vertex="1" parent="1">
          <mxGeometry x="221" y="1167" width="31" height="24" as="geometry" />
        </mxCell>
        <mxCell id="VNnDimrutekPzXAT0fa--163" value="&lt;font face=&quot;Times New Roman&quot;&gt;&lt;b&gt;&lt;span style=&quot;color: rgb(51 , 51 , 51) ; font-family: &amp;#34;pingfang sc&amp;#34; , &amp;#34;lantinghei sc&amp;#34; , &amp;#34;microsoft yahei&amp;#34; , &amp;#34;arial&amp;#34; , , sans-serif , &amp;#34;tahoma&amp;#34; ; font-size: 16px ; background-color: rgb(255 , 255 , 255)&quot;&gt;Θ&lt;/span&gt;&lt;span style=&quot;color: rgb(51 , 51 , 51) ; font-family: &amp;#34;pingfang sc&amp;#34; , &amp;#34;lantinghei sc&amp;#34; , &amp;#34;microsoft yahei&amp;#34; , &amp;#34;arial&amp;#34; , , sans-serif , &amp;#34;tahoma&amp;#34; ; font-size: 16px ; background-color: rgb(255 , 255 , 255)&quot;&gt;&lt;sup&gt;r&lt;/sup&gt;&lt;/span&gt;&lt;/b&gt;&lt;/font&gt;" style="text;html=1;resizable=0;autosize=1;align=center;verticalAlign=middle;points=[];fillColor=none;strokeColor=none;rounded=0;" vertex="1" parent="1">
          <mxGeometry x="221" y="917.25" width="28" height="24" as="geometry" />
        </mxCell>
        <mxCell id="VNnDimrutekPzXAT0fa--164" value="&lt;b&gt;&lt;font face=&quot;Times New Roman&quot;&gt;&lt;span style=&quot;color: rgb(51 , 51 , 51) ; font-family: &amp;#34;pingfang sc&amp;#34; , &amp;#34;lantinghei sc&amp;#34; , &amp;#34;microsoft yahei&amp;#34; , &amp;#34;arial&amp;#34; , , sans-serif , &amp;#34;tahoma&amp;#34; ; font-size: 16px ; background-color: rgb(255 , 255 , 255)&quot;&gt;Θ&lt;/span&gt;&lt;span style=&quot;color: rgb(51 , 51 , 51) ; background-color: rgb(255 , 255 , 255) ; font-size: 13.3333px&quot;&gt;&lt;sup&gt;d&lt;/sup&gt;&lt;/span&gt;&lt;/font&gt;&lt;/b&gt;" style="text;html=1;resizable=0;autosize=1;align=center;verticalAlign=middle;points=[];fillColor=none;strokeColor=none;rounded=0;" vertex="1" parent="1">
          <mxGeometry x="222" y="1085.75" width="29" height="23" as="geometry" />
        </mxCell>
        <mxCell id="VNnDimrutekPzXAT0fa--165" value="&lt;font face=&quot;Times New Roman&quot;&gt;&lt;b&gt;&lt;span style=&quot;color: rgb(51 , 51 , 51) ; font-family: &amp;#34;pingfang sc&amp;#34; , &amp;#34;lantinghei sc&amp;#34; , &amp;#34;microsoft yahei&amp;#34; , &amp;#34;arial&amp;#34; , , sans-serif , &amp;#34;tahoma&amp;#34; ; font-size: 16px ; background-color: rgb(255 , 255 , 255)&quot;&gt;Υ&lt;/span&gt;&lt;span style=&quot;color: rgb(51 , 51 , 51) ; font-family: &amp;#34;pingfang sc&amp;#34; , &amp;#34;lantinghei sc&amp;#34; , &amp;#34;microsoft yahei&amp;#34; , &amp;#34;arial&amp;#34; , , sans-serif , &amp;#34;tahoma&amp;#34; ; font-size: 16px ; background-color: rgb(255 , 255 , 255)&quot;&gt;&lt;sup&gt;r&lt;/sup&gt;&lt;/span&gt;&lt;/b&gt;&lt;/font&gt;" style="text;html=1;resizable=0;autosize=1;align=center;verticalAlign=middle;points=[];fillColor=none;strokeColor=none;rounded=0;" vertex="1" parent="1">
          <mxGeometry x="222" y="777" width="27" height="24" as="geometry" />
        </mxCell>
        <mxCell id="VNnDimrutekPzXAT0fa--166" value="&lt;b&gt;&lt;font face=&quot;Times New Roman&quot;&gt;&lt;span style=&quot;color: rgb(51 , 51 , 51) ; font-family: &amp;#34;pingfang sc&amp;#34; , &amp;#34;lantinghei sc&amp;#34; , &amp;#34;microsoft yahei&amp;#34; , &amp;#34;arial&amp;#34; , , sans-serif , &amp;#34;tahoma&amp;#34; ; font-size: 16px ; background-color: rgb(255 , 255 , 255)&quot;&gt;Υ&lt;/span&gt;&lt;span style=&quot;color: rgb(51 , 51 , 51) ; background-color: rgb(255 , 255 , 255) ; font-size: 13.3333px&quot;&gt;&lt;sup&gt;d&lt;/sup&gt;&lt;/span&gt;&lt;/font&gt;&lt;/b&gt;" style="text;html=1;resizable=0;autosize=1;align=center;verticalAlign=middle;points=[];fillColor=none;strokeColor=none;rounded=0;" vertex="1" parent="1">
          <mxGeometry x="222" y="1245.75" width="28" height="23" as="geometry" />
        </mxCell>
        <mxCell id="VNnDimrutekPzXAT0fa--167" value="&lt;font face=&quot;Times New Roman&quot;&gt;&lt;b&gt;&lt;span style=&quot;color: rgb(51 , 51 , 51) ; font-family: &amp;#34;pingfang sc&amp;#34; , &amp;#34;lantinghei sc&amp;#34; , &amp;#34;microsoft yahei&amp;#34; , &amp;#34;arial&amp;#34; , , sans-serif , &amp;#34;tahoma&amp;#34; ; font-size: 16px ; background-color: rgb(255 , 255 , 255)&quot;&gt;Θ&lt;/span&gt;&lt;span style=&quot;color: rgb(51 , 51 , 51) ; font-size: 9.25925px ; background-color: rgb(255 , 255 , 255)&quot;&gt;&lt;sup&gt;r&#39;&lt;/sup&gt;&lt;/span&gt;&lt;/b&gt;&lt;/font&gt;" style="text;html=1;resizable=0;autosize=1;align=center;verticalAlign=middle;points=[];fillColor=none;strokeColor=none;rounded=0;" vertex="1" parent="1">
          <mxGeometry x="467.5" y="921.5" width="31" height="23" as="geometry" />
        </mxCell>
        <mxCell id="VNnDimrutekPzXAT0fa--168" value="&lt;font face=&quot;Times New Roman&quot;&gt;&lt;b&gt;&lt;span style=&quot;color: rgb(51 , 51 , 51) ; font-family: &amp;#34;pingfang sc&amp;#34; , &amp;#34;lantinghei sc&amp;#34; , &amp;#34;microsoft yahei&amp;#34; , &amp;#34;arial&amp;#34; , , sans-serif , &amp;#34;tahoma&amp;#34; ; font-size: 16px ; background-color: rgb(255 , 255 , 255)&quot;&gt;Υ&lt;/span&gt;&lt;span style=&quot;color: rgb(51 , 51 , 51) ; background-color: rgb(255 , 255 , 255) ; font-size: 11.1111px&quot;&gt;&lt;sup&gt;r&#39;&lt;/sup&gt;&lt;/span&gt;&lt;/b&gt;&lt;/font&gt;" style="text;html=1;resizable=0;autosize=1;align=center;verticalAlign=middle;points=[];fillColor=none;strokeColor=none;rounded=0;" vertex="1" parent="1">
          <mxGeometry x="467.5" y="766" width="30" height="23" as="geometry" />
        </mxCell>
        <mxCell id="VNnDimrutekPzXAT0fa--169" value="&lt;b&gt;&lt;font face=&quot;Times New Roman&quot;&gt;&lt;span style=&quot;color: rgb(51 , 51 , 51) ; font-family: &amp;#34;pingfang sc&amp;#34; , &amp;#34;lantinghei sc&amp;#34; , &amp;#34;microsoft yahei&amp;#34; , &amp;#34;arial&amp;#34; , , sans-serif , &amp;#34;tahoma&amp;#34; ; font-size: 16px ; background-color: rgb(255 , 255 , 255)&quot;&gt;Θ&lt;/span&gt;&lt;span style=&quot;color: rgb(51 , 51 , 51) ; font-size: 9.25925px ; background-color: rgb(255 , 255 , 255)&quot;&gt;&lt;sup&gt;d&#39;&lt;/sup&gt;&lt;/span&gt;&lt;/font&gt;&lt;/b&gt;" style="text;html=1;resizable=0;autosize=1;align=center;verticalAlign=middle;points=[];fillColor=none;strokeColor=none;rounded=0;" vertex="1" parent="1">
          <mxGeometry x="470" y="1086.74" width="32" height="23" as="geometry" />
        </mxCell>
        <mxCell id="VNnDimrutekPzXAT0fa--170" value="&lt;font face=&quot;Times New Roman&quot;&gt;&lt;b&gt;&lt;span style=&quot;color: rgb(51 , 51 , 51) ; font-family: &amp;#34;pingfang sc&amp;#34; , &amp;#34;lantinghei sc&amp;#34; , &amp;#34;microsoft yahei&amp;#34; , &amp;#34;arial&amp;#34; , , sans-serif , &amp;#34;tahoma&amp;#34; ; font-size: 16px ; background-color: rgb(255 , 255 , 255)&quot;&gt;Υ&lt;/span&gt;&lt;span style=&quot;color: rgb(51 , 51 , 51) ; background-color: rgb(255 , 255 , 255) ; font-size: 11.1111px&quot;&gt;&lt;sup&gt;d&#39;&lt;/sup&gt;&lt;/span&gt;&lt;/b&gt;&lt;/font&gt;" style="text;html=1;resizable=0;autosize=1;align=center;verticalAlign=middle;points=[];fillColor=none;strokeColor=none;rounded=0;" vertex="1" parent="1">
          <mxGeometry x="470" y="1251" width="32" height="23" as="geometry" />
        </mxCell>
        <mxCell id="VNnDimrutekPzXAT0fa--171" value="&lt;span style=&quot;font-size: 16px ; background-color: rgb(255 , 255 , 255)&quot;&gt;&lt;b&gt;&lt;font face=&quot;Times New Roman&quot;&gt;α&lt;/font&gt;&lt;/b&gt;&lt;/span&gt;" style="text;html=1;resizable=0;autosize=1;align=center;verticalAlign=middle;points=[];strokeColor=none;rounded=0;fillColor=none;" vertex="1" parent="1">
          <mxGeometry x="215" y="1017" width="19" height="19" as="geometry" />
        </mxCell>
        <mxCell id="VNnDimrutekPzXAT0fa--172" value="&lt;font color=&quot;#333333&quot; face=&quot;Times New Roman&quot;&gt;&lt;span style=&quot;background-color: rgb(255 , 255 , 255)&quot;&gt;&lt;b&gt;&lt;span style=&quot;font-size: 16px&quot;&gt;F&lt;/span&gt;&lt;sub&gt;&lt;font style=&quot;font-size: 12px&quot;&gt;d&lt;/font&gt;&lt;/sub&gt;&lt;/b&gt;&lt;/span&gt;&lt;/font&gt;" style="text;html=1;resizable=0;autosize=1;align=center;verticalAlign=middle;points=[];fillColor=none;strokeColor=none;rounded=0;" vertex="1" parent="1">
          <mxGeometry x="540" y="1145" width="26" height="22" as="geometry" />
        </mxCell>
        <mxCell id="VNnDimrutekPzXAT0fa--173" value="&lt;font color=&quot;#333333&quot; face=&quot;Times New Roman&quot;&gt;&lt;span style=&quot;background-color: rgb(255 , 255 , 255)&quot;&gt;&lt;b&gt;&lt;span style=&quot;font-size: 16px&quot;&gt;F&lt;/span&gt;&lt;sub&gt;&lt;font style=&quot;font-size: 12px&quot;&gt;r&lt;/font&gt;&lt;/sub&gt;&lt;/b&gt;&lt;/span&gt;&lt;/font&gt;" style="text;html=1;resizable=0;autosize=1;align=center;verticalAlign=middle;points=[];fillColor=none;strokeColor=none;rounded=0;" vertex="1" parent="1">
          <mxGeometry x="539" y="892.75" width="25" height="22" as="geometry" />
        </mxCell>
        <mxCell id="VNnDimrutekPzXAT0fa--174" value="" style="rounded=0;whiteSpace=wrap;html=1;fillColor=#ffe6cc;strokeColor=#d79b00;" vertex="1" parent="1">
          <mxGeometry x="440" y="765.74" width="20" height="10" as="geometry" />
        </mxCell>
        <mxCell id="VNnDimrutekPzXAT0fa--175" value="" style="rounded=0;whiteSpace=wrap;html=1;fillColor=#f8cecc;strokeColor=#b85450;" vertex="1" parent="1">
          <mxGeometry x="440" y="775.74" width="20" height="16" as="geometry" />
        </mxCell>
        <mxCell id="VNnDimrutekPzXAT0fa--231" style="edgeStyle=orthogonalEdgeStyle;rounded=0;orthogonalLoop=1;jettySize=auto;html=1;exitX=1;exitY=0;exitDx=0;exitDy=0;entryX=0.5;entryY=0;entryDx=0;entryDy=0;strokeWidth=2;" edge="1" parent="1" source="VNnDimrutekPzXAT0fa--176" target="VNnDimrutekPzXAT0fa--34">
          <mxGeometry relative="1" as="geometry">
            <Array as="points">
              <mxPoint x="721" y="792" />
            </Array>
          </mxGeometry>
        </mxCell>
        <mxCell id="VNnDimrutekPzXAT0fa--176" value="" style="rounded=0;whiteSpace=wrap;html=1;fillColor=#d5e8d4;strokeColor=#82b366;" vertex="1" parent="1">
          <mxGeometry x="440" y="791.74" width="20" height="25.26" as="geometry" />
        </mxCell>
        <mxCell id="VNnDimrutekPzXAT0fa--177" value="" style="rounded=0;whiteSpace=wrap;html=1;fillColor=#ffe6cc;strokeColor=#d79b00;" vertex="1" parent="1">
          <mxGeometry x="440" y="919" width="20" height="10" as="geometry" />
        </mxCell>
        <mxCell id="VNnDimrutekPzXAT0fa--178" value="" style="rounded=0;whiteSpace=wrap;html=1;fillColor=#f8cecc;strokeColor=#b85450;" vertex="1" parent="1">
          <mxGeometry x="440" y="929" width="20" height="16" as="geometry" />
        </mxCell>
        <mxCell id="VNnDimrutekPzXAT0fa--179" style="edgeStyle=orthogonalEdgeStyle;rounded=0;orthogonalLoop=1;jettySize=auto;html=1;exitX=1;exitY=0;exitDx=0;exitDy=0;entryX=0.5;entryY=1;entryDx=0;entryDy=0;strokeWidth=2;fillColor=#647687;strokeColor=#314354;" edge="1" parent="1" source="VNnDimrutekPzXAT0fa--180" target="VNnDimrutekPzXAT0fa--17">
          <mxGeometry relative="1" as="geometry">
            <Array as="points">
              <mxPoint x="532" y="945" />
            </Array>
          </mxGeometry>
        </mxCell>
        <mxCell id="VNnDimrutekPzXAT0fa--180" value="" style="rounded=0;whiteSpace=wrap;html=1;fillColor=#d5e8d4;strokeColor=#82b366;" vertex="1" parent="1">
          <mxGeometry x="440" y="945" width="20" height="25" as="geometry" />
        </mxCell>
        <mxCell id="VNnDimrutekPzXAT0fa--181" value="" style="rounded=0;whiteSpace=wrap;html=1;fillColor=#ffe6cc;strokeColor=#d79b00;" vertex="1" parent="1">
          <mxGeometry x="436" y="1087.25" width="20" height="10" as="geometry" />
        </mxCell>
        <mxCell id="VNnDimrutekPzXAT0fa--182" style="edgeStyle=orthogonalEdgeStyle;rounded=0;orthogonalLoop=1;jettySize=auto;html=1;exitX=1;exitY=0.75;exitDx=0;exitDy=0;entryX=0.5;entryY=0;entryDx=0;entryDy=0;strokeWidth=2;fillColor=#647687;strokeColor=#314354;" edge="1" parent="1" source="VNnDimrutekPzXAT0fa--183" target="VNnDimrutekPzXAT0fa--27">
          <mxGeometry relative="1" as="geometry" />
        </mxCell>
        <mxCell id="VNnDimrutekPzXAT0fa--183" value="" style="rounded=0;whiteSpace=wrap;html=1;fillColor=#f8cecc;strokeColor=#b85450;" vertex="1" parent="1">
          <mxGeometry x="436" y="1097.25" width="20" height="16" as="geometry" />
        </mxCell>
        <mxCell id="VNnDimrutekPzXAT0fa--184" value="" style="rounded=0;whiteSpace=wrap;html=1;fillColor=#d5e8d4;strokeColor=#82b366;" vertex="1" parent="1">
          <mxGeometry x="436" y="1113.25" width="20" height="26.75" as="geometry" />
        </mxCell>
        <mxCell id="VNnDimrutekPzXAT0fa--185" value="" style="rounded=0;whiteSpace=wrap;html=1;fillColor=#ffe6cc;strokeColor=#d79b00;" vertex="1" parent="1">
          <mxGeometry x="435" y="1242" width="20" height="10" as="geometry" />
        </mxCell>
        <mxCell id="VNnDimrutekPzXAT0fa--186" value="" style="rounded=0;whiteSpace=wrap;html=1;fillColor=#f8cecc;strokeColor=#b85450;" vertex="1" parent="1">
          <mxGeometry x="435" y="1252" width="20" height="16" as="geometry" />
        </mxCell>
        <mxCell id="VNnDimrutekPzXAT0fa--187" value="" style="rounded=0;whiteSpace=wrap;html=1;fillColor=#d5e8d4;strokeColor=#82b366;" vertex="1" parent="1">
          <mxGeometry x="435" y="1268" width="20" height="27" as="geometry" />
        </mxCell>
        <mxCell id="VNnDimrutekPzXAT0fa--188" value="A&lt;sub&gt;r&lt;/sub&gt;" style="whiteSpace=wrap;html=1;aspect=fixed;strokeColor=#36393d;fillColor=#FEFFD9;" vertex="1" parent="1">
          <mxGeometry x="667" y="988" width="40" height="40" as="geometry" />
        </mxCell>
        <mxCell id="VNnDimrutekPzXAT0fa--230" style="edgeStyle=orthogonalEdgeStyle;rounded=0;orthogonalLoop=1;jettySize=auto;html=1;exitX=1;exitY=0.25;exitDx=0;exitDy=0;entryX=0.5;entryY=1;entryDx=0;entryDy=0;strokeWidth=2;" edge="1" parent="1" source="VNnDimrutekPzXAT0fa--189" target="VNnDimrutekPzXAT0fa--34">
          <mxGeometry relative="1" as="geometry">
            <Array as="points">
              <mxPoint x="721" y="1008" />
            </Array>
          </mxGeometry>
        </mxCell>
        <mxCell id="VNnDimrutekPzXAT0fa--189" value="&lt;font face=&quot;Times New Roman&quot;&gt;&lt;b&gt;A&lt;sub&gt;r&lt;/sub&gt;&lt;/b&gt;&lt;/font&gt;" style="whiteSpace=wrap;html=1;aspect=fixed;strokeColor=#6c8ebf;fillColor=#EAF3FC;" vertex="1" parent="1">
          <mxGeometry x="677" y="998" width="40" height="40" as="geometry" />
        </mxCell>
        <mxCell id="VNnDimrutekPzXAT0fa--190" value="A&lt;sub&gt;d&lt;/sub&gt;" style="whiteSpace=wrap;html=1;aspect=fixed;strokeColor=#36393d;fillColor=#FEFFD9;" vertex="1" parent="1">
          <mxGeometry x="665" y="1056" width="40" height="40" as="geometry" />
        </mxCell>
        <mxCell id="VNnDimrutekPzXAT0fa--191" style="edgeStyle=orthogonalEdgeStyle;rounded=0;orthogonalLoop=1;jettySize=auto;html=1;exitX=0.995;exitY=0.815;exitDx=0;exitDy=0;entryX=0.5;entryY=0;entryDx=0;entryDy=0;strokeWidth=2;exitPerimeter=0;" edge="1" parent="1" source="VNnDimrutekPzXAT0fa--192" target="VNnDimrutekPzXAT0fa--36">
          <mxGeometry relative="1" as="geometry">
            <Array as="points">
              <mxPoint x="719" y="1099" />
            </Array>
          </mxGeometry>
        </mxCell>
        <mxCell id="VNnDimrutekPzXAT0fa--192" value="&lt;b&gt;&lt;font face=&quot;Times New Roman&quot;&gt;A&lt;sub&gt;d&lt;/sub&gt;&lt;/font&gt;&lt;/b&gt;" style="whiteSpace=wrap;html=1;aspect=fixed;strokeColor=#36393d;fillColor=#EAF3FC;" vertex="1" parent="1">
          <mxGeometry x="675" y="1066" width="40" height="40" as="geometry" />
        </mxCell>
        <mxCell id="VNnDimrutekPzXAT0fa--193" value="&lt;b&gt;&lt;font face=&quot;Times New Roman&quot;&gt;1*1&lt;/font&gt;&lt;/b&gt;" style="rounded=0;whiteSpace=wrap;html=1;strokeColor=#36393d;fillColor=#CCE5FF;" vertex="1" parent="1">
          <mxGeometry x="180" y="1100.25" width="30" height="30" as="geometry" />
        </mxCell>
        <mxCell id="VNnDimrutekPzXAT0fa--194" value="&lt;b&gt;&lt;font face=&quot;Times New Roman&quot;&gt;1*1&lt;/font&gt;&lt;/b&gt;" style="rounded=0;whiteSpace=wrap;html=1;strokeColor=#36393d;fillColor=#CCE5FF;" vertex="1" parent="1">
          <mxGeometry x="181" y="1180.63" width="30" height="30" as="geometry" />
        </mxCell>
        <mxCell id="VNnDimrutekPzXAT0fa--195" value="" style="endArrow=classic;html=1;strokeWidth=2;" edge="1" parent="1">
          <mxGeometry width="50" height="50" relative="1" as="geometry">
            <mxPoint x="150" y="1330" as="sourcePoint" />
            <mxPoint x="150" y="1037" as="targetPoint" />
          </mxGeometry>
        </mxCell>
        <mxCell id="VNnDimrutekPzXAT0fa--234" style="edgeStyle=orthogonalEdgeStyle;rounded=0;orthogonalLoop=1;jettySize=auto;html=1;exitX=1;exitY=0.5;exitDx=0;exitDy=0;entryX=-0.015;entryY=0.438;entryDx=0;entryDy=0;entryPerimeter=0;strokeWidth=2;" edge="1" parent="1" source="VNnDimrutekPzXAT0fa--198" target="VNnDimrutekPzXAT0fa--150">
          <mxGeometry relative="1" as="geometry" />
        </mxCell>
        <mxCell id="VNnDimrutekPzXAT0fa--198" value="+" style="ellipse;whiteSpace=wrap;html=1;aspect=fixed;" vertex="1" parent="1">
          <mxGeometry x="584" y="1056.24" width="15" height="15" as="geometry" />
        </mxCell>
        <mxCell id="VNnDimrutekPzXAT0fa--199" style="edgeStyle=orthogonalEdgeStyle;rounded=0;orthogonalLoop=1;jettySize=auto;html=1;exitX=1;exitY=0.5;exitDx=0;exitDy=0;entryX=0;entryY=0.25;entryDx=0;entryDy=0;strokeWidth=2;" edge="1" parent="1">
          <mxGeometry relative="1" as="geometry">
            <mxPoint x="598.9999999999729" y="996.5" as="sourcePoint" />
            <mxPoint x="656" y="996" as="targetPoint" />
            <Array as="points">
              <mxPoint x="628" y="997" />
              <mxPoint x="656" y="996" />
            </Array>
          </mxGeometry>
        </mxCell>
        <mxCell id="VNnDimrutekPzXAT0fa--200" value="&lt;b&gt;&lt;font face=&quot;Times New Roman&quot;&gt;+&lt;/font&gt;&lt;/b&gt;" style="ellipse;whiteSpace=wrap;html=1;aspect=fixed;" vertex="1" parent="1">
          <mxGeometry x="584" y="988" width="15" height="15" as="geometry" />
        </mxCell>
        <mxCell id="VNnDimrutekPzXAT0fa--201" value="" style="endArrow=classic;html=1;entryX=0.5;entryY=1;entryDx=0;entryDy=0;strokeWidth=2;startArrow=none;fillColor=#e3c800;strokeColor=#B09500;exitX=1;exitY=0.5;exitDx=0;exitDy=0;" edge="1" parent="1" source="VNnDimrutekPzXAT0fa--32" target="VNnDimrutekPzXAT0fa--200">
          <mxGeometry width="50" height="50" relative="1" as="geometry">
            <mxPoint x="500" y="1055" as="sourcePoint" />
            <mxPoint x="548.5" y="990" as="targetPoint" />
          </mxGeometry>
        </mxCell>
        <mxCell id="VNnDimrutekPzXAT0fa--202" value="" style="endArrow=classic;html=1;entryX=0.5;entryY=0;entryDx=0;entryDy=0;strokeWidth=2;exitX=1;exitY=0.5;exitDx=0;exitDy=0;fillColor=#e3c800;strokeColor=#B09500;" edge="1" parent="1" source="VNnDimrutekPzXAT0fa--216" target="VNnDimrutekPzXAT0fa--198">
          <mxGeometry width="50" height="50" relative="1" as="geometry">
            <mxPoint x="563.8033008588986" y="1031.3033008588989" as="sourcePoint" />
            <mxPoint x="550" y="944" as="targetPoint" />
          </mxGeometry>
        </mxCell>
        <mxCell id="VNnDimrutekPzXAT0fa--203" value="" style="rounded=0;whiteSpace=wrap;html=1;fillColor=#D5E8D4;strokeColor=#36393d;" vertex="1" parent="1">
          <mxGeometry x="206" y="990.56" width="9" height="72.88" as="geometry" />
        </mxCell>
        <mxCell id="VNnDimrutekPzXAT0fa--204" style="edgeStyle=orthogonalEdgeStyle;rounded=0;orthogonalLoop=1;jettySize=auto;html=1;exitX=1;exitY=0.5;exitDx=0;exitDy=0;entryX=0;entryY=0.5;entryDx=0;entryDy=0;strokeWidth=2;strokeColor=#B09500;fillColor=#e3c800;" edge="1" parent="1" source="VNnDimrutekPzXAT0fa--205">
          <mxGeometry relative="1" as="geometry">
            <Array as="points">
              <mxPoint x="375" y="1014" />
            </Array>
            <mxPoint x="265" y="1008" as="sourcePoint" />
            <mxPoint x="551.0000000000025" y="1013.5" as="targetPoint" />
          </mxGeometry>
        </mxCell>
        <mxCell id="VNnDimrutekPzXAT0fa--205" value="" style="rounded=0;whiteSpace=wrap;html=1;strokeColor=#56517e;fillColor=#D0CEE2;" vertex="1" parent="1">
          <mxGeometry x="206" y="1008" width="59" height="10" as="geometry" />
        </mxCell>
        <mxCell id="VNnDimrutekPzXAT0fa--206" style="edgeStyle=orthogonalEdgeStyle;rounded=0;orthogonalLoop=1;jettySize=auto;html=1;exitX=1;exitY=0.5;exitDx=0;exitDy=0;entryX=0;entryY=0.5;entryDx=0;entryDy=0;strokeWidth=2;strokeColor=#B09500;fillColor=#e3c800;" edge="1" parent="1" source="VNnDimrutekPzXAT0fa--207" target="VNnDimrutekPzXAT0fa--32">
          <mxGeometry relative="1" as="geometry" />
        </mxCell>
        <mxCell id="VNnDimrutekPzXAT0fa--207" value="" style="rounded=0;whiteSpace=wrap;html=1;fillColor=#FFCCCC;strokeColor=#314354;fontColor=#ffffff;" vertex="1" parent="1">
          <mxGeometry x="206" y="1041" width="59" height="10" as="geometry" />
        </mxCell>
        <mxCell id="VNnDimrutekPzXAT0fa--209" value="" style="shape=curlyBracket;whiteSpace=wrap;html=1;rounded=1;fillColor=#FEFFD9;strokeColor=#666666;strokeWidth=2;" vertex="1" parent="1">
          <mxGeometry x="287" y="760" width="8" height="57" as="geometry" />
        </mxCell>
        <mxCell id="VNnDimrutekPzXAT0fa--210" value="" style="shape=curlyBracket;whiteSpace=wrap;html=1;rounded=1;flipH=1;strokeColor=#666666;strokeWidth=2;fillColor=#FEFFD9;" vertex="1" parent="1">
          <mxGeometry x="422" y="760" width="8" height="56" as="geometry" />
        </mxCell>
        <mxCell id="VNnDimrutekPzXAT0fa--212" value="" style="shape=cube;whiteSpace=wrap;html=1;boundedLbl=1;backgroundOutline=1;darkOpacity=0.05;darkOpacity2=0.1;size=6;rotation=90;fillColor=#fff2cc;strokeColor=#d6b656;" vertex="1" parent="1">
          <mxGeometry x="239" y="861.8199999999999" width="57" height="16.37" as="geometry" />
        </mxCell>
        <mxCell id="VNnDimrutekPzXAT0fa--213" value="" style="shape=cube;whiteSpace=wrap;html=1;boundedLbl=1;backgroundOutline=1;darkOpacity=0.05;darkOpacity2=0.1;size=6;rotation=90;fillColor=#fff2cc;strokeColor=#d6b656;" vertex="1" parent="1">
          <mxGeometry x="240" y="937.56" width="57" height="16.37" as="geometry" />
        </mxCell>
        <mxCell id="VNnDimrutekPzXAT0fa--214" value="" style="shape=curlyBracket;whiteSpace=wrap;html=1;rounded=1;fillColor=#FEFFD9;strokeColor=#666666;strokeWidth=2;" vertex="1" parent="1">
          <mxGeometry x="287" y="914.25" width="8" height="57" as="geometry" />
        </mxCell>
        <mxCell id="VNnDimrutekPzXAT0fa--215" value="" style="shape=curlyBracket;whiteSpace=wrap;html=1;rounded=1;flipH=1;strokeColor=#666666;strokeWidth=2;fillColor=#FEFFD9;" vertex="1" parent="1">
          <mxGeometry x="422" y="913.75" width="8" height="56" as="geometry" />
        </mxCell>
        <mxCell id="VNnDimrutekPzXAT0fa--216" value="&lt;b&gt;&lt;font face=&quot;Times New Roman&quot;&gt;X&lt;/font&gt;&lt;/b&gt;" style="ellipse;whiteSpace=wrap;html=1;aspect=fixed;fillColor=#e3c800;strokeColor=#B09500;fontColor=#000000;" vertex="1" parent="1">
          <mxGeometry x="551" y="1006" width="15" height="15" as="geometry" />
        </mxCell>
        <mxCell id="VNnDimrutekPzXAT0fa--217" value="" style="endArrow=classic;html=1;strokeWidth=2;entryX=0.5;entryY=0;entryDx=0;entryDy=0;fillColor=#647687;strokeColor=#314354;" edge="1" parent="1" target="VNnDimrutekPzXAT0fa--216">
          <mxGeometry width="50" height="50" relative="1" as="geometry">
            <mxPoint x="559" y="918" as="sourcePoint" />
            <mxPoint x="558.5" y="1004" as="targetPoint" />
          </mxGeometry>
        </mxCell>
        <mxCell id="VNnDimrutekPzXAT0fa--218" value="" style="endArrow=classic;html=1;strokeWidth=2;fillColor=#647687;strokeColor=#314354;entryX=0.5;entryY=1;entryDx=0;entryDy=0;" edge="1" parent="1" target="VNnDimrutekPzXAT0fa--32">
          <mxGeometry width="50" height="50" relative="1" as="geometry">
            <mxPoint x="559" y="1144" as="sourcePoint" />
            <mxPoint x="558" y="1070" as="targetPoint" />
          </mxGeometry>
        </mxCell>
        <mxCell id="VNnDimrutekPzXAT0fa--219" value="" style="shape=cube;whiteSpace=wrap;html=1;boundedLbl=1;backgroundOutline=1;darkOpacity=0.05;darkOpacity2=0.1;size=6;rotation=90;fillColor=#fff2cc;strokeColor=#d6b656;" vertex="1" parent="1">
          <mxGeometry x="239" y="1107.06" width="57" height="16.37" as="geometry" />
        </mxCell>
        <mxCell id="VNnDimrutekPzXAT0fa--220" style="edgeStyle=orthogonalEdgeStyle;rounded=0;orthogonalLoop=1;jettySize=auto;html=1;exitX=0;exitY=0;exitDx=25.499999999999996;exitDy=0;exitPerimeter=0;entryX=0.5;entryY=1;entryDx=0;entryDy=0;strokeWidth=2;fillColor=#647687;strokeColor=#314354;" edge="1" parent="1" source="VNnDimrutekPzXAT0fa--221" target="VNnDimrutekPzXAT0fa--27">
          <mxGeometry relative="1" as="geometry" />
        </mxCell>
        <mxCell id="VNnDimrutekPzXAT0fa--221" value="" style="shape=cube;whiteSpace=wrap;html=1;boundedLbl=1;backgroundOutline=1;darkOpacity=0.05;darkOpacity2=0.1;size=6;rotation=90;fillColor=#fff2cc;strokeColor=#d6b656;" vertex="1" parent="1">
          <mxGeometry x="240" y="1185" width="57" height="16.37" as="geometry" />
        </mxCell>
        <mxCell id="VNnDimrutekPzXAT0fa--222" value="" style="shape=curlyBracket;whiteSpace=wrap;html=1;rounded=1;fillColor=#FEFFD9;strokeColor=#666666;strokeWidth=2;" vertex="1" parent="1">
          <mxGeometry x="286" y="1086.74" width="8" height="57" as="geometry" />
        </mxCell>
        <mxCell id="VNnDimrutekPzXAT0fa--223" value="" style="shape=curlyBracket;whiteSpace=wrap;html=1;rounded=1;flipH=1;strokeColor=#666666;strokeWidth=2;fillColor=#FEFFD9;" vertex="1" parent="1">
          <mxGeometry x="422" y="1086" width="8" height="56" as="geometry" />
        </mxCell>
        <mxCell id="VNnDimrutekPzXAT0fa--224" value="" style="shape=cube;whiteSpace=wrap;html=1;boundedLbl=1;backgroundOutline=1;darkOpacity=0.05;darkOpacity2=0.1;size=6;rotation=90;fillColor=#fff2cc;strokeColor=#d6b656;" vertex="1" parent="1">
          <mxGeometry x="240" y="1262.75" width="57" height="16.37" as="geometry" />
        </mxCell>
        <mxCell id="VNnDimrutekPzXAT0fa--225" value="" style="shape=curlyBracket;whiteSpace=wrap;html=1;rounded=1;flipH=1;strokeColor=#666666;strokeWidth=2;fillColor=#FEFFD9;" vertex="1" parent="1">
          <mxGeometry x="422" y="1239" width="8" height="56" as="geometry" />
        </mxCell>
        <mxCell id="VNnDimrutekPzXAT0fa--226" value="" style="shape=curlyBracket;whiteSpace=wrap;html=1;rounded=1;fillColor=#FEFFD9;strokeColor=#666666;strokeWidth=2;" vertex="1" parent="1">
          <mxGeometry x="286" y="1242.43" width="8" height="57" as="geometry" />
        </mxCell>
        <mxCell id="VNnDimrutekPzXAT0fa--208" value="&lt;b&gt;&lt;font face=&quot;Times New Roman&quot; style=&quot;font-size: 13px&quot;&gt;softmax&lt;/font&gt;&lt;/b&gt;" style="text;html=1;resizable=0;autosize=1;align=center;verticalAlign=middle;points=[];fillColor=none;strokeColor=none;rounded=0;" vertex="1" parent="1">
          <mxGeometry x="150" y="1006" width="60" height="20" as="geometry" />
        </mxCell>
        <mxCell id="VNnDimrutekPzXAT0fa--235" value="" style="endArrow=classic;html=1;strokeWidth=2;entryX=0.5;entryY=0;entryDx=0;entryDy=0;" edge="1" parent="1" target="VNnDimrutekPzXAT0fa--15">
          <mxGeometry width="50" height="50" relative="1" as="geometry">
            <mxPoint x="151" y="730" as="sourcePoint" />
            <mxPoint x="201" y="680" as="targetPoint" />
          </mxGeometry>
        </mxCell>
      </root>
    </mxGraphModel>
  </diagram>
</mxfile>
